<svg width="181" height="194" viewBox="0 0 181 194" fill="none" xmlns="http://www.w3.org/2000/svg"><path opacity=".7" d="M125.64 186.18s-1.15 1.64 1.44 2.12c2.52.42 14.48-4.23 15.13-6.72 0 0 .92-1.3-1.68-1.79l-1-2.05s.88-.72.26-1.4c-.62-.69-1.6-.52-1.6-.52l-1.05-3.19s2.68-13.52 2.39-15.2a7.97 7.97 0 0 0-2.74-4.62c-1.52-1.31-5.14-3.98-5.14-3.98s-2.06-1.08-3.17-.89c-1.12.2-1.42.1-1.42.1l-4.84-1.81s-.44-.07-.12-.7c.27-.55.76-2.28.38-2.8-.32-.58-2.27-2.33-2.27-2.33s-1.23-.86-2.35-.3c-1.13.55-3.36 1.3-3.36 1.3s1.8-3.26 1.32-3.97c-.48-.7-2.3-1.25-2.3-2.47 0-1.22 1.67-5.31 1.36-8.34-.31-3.04-1.71-6.96-3.07-8.16-1.36-1.2-3.84-1.48-3.84-1.48s-10.06 1.6-14.94 5.75c-4.8 4.2-10.88 10.92-10.23 12.6.57 1.63-.12 3.83 3.84 7.24 3.96 3.4 3.43 2.41 4.12 2.65.63.32 8.38 1.13 8.68 1.22.3.1-.4 1.44.31 1.82l.72.38s-.63.54.2.75c.83.22 3.2.67 3.6 1.67.38 1.01-.3 6.66-.3 7.01.13.34 3.72 2.02 3.72 2.02s-2.39 7.73-1.72 8.7c.67.95 5.7 5.1 5.82 5.8.12.7-.66 1.62.58 2.12 1.23.5 10.36 2.66 10.36 2.66l1.12 1.88c-.16-.11-.83 1-.32 1.85.5.85 1.2.73 1.2.73l.9 2.35Z" fill="#92C9CA"/><g opacity=".4"><path d="M133.24 182.85c4.23-1.66 7.94-2.23 8.3-1.36.37.86-2.76 3.06-7 4.73-4.23 1.66-7.93 2.23-8.3 1.36-.4-1 2.77-3.06 7-4.73Z" fill="#909797"/><path d="M125.98 185.7s5.32-4.95 14.2-5.91c.07.05-8.75.08-14.2 5.9ZM124.88 183.44s.8-2.36 6.27-4.39c5.46-2.02 8.46-1.25 8.46-1.25s-4.68-1.34-10.33 1.65c.06-.08-4.46 2-4.4 4Z" fill="#C1C9CA"/><path d="M123.82 181.47s.8-2.36 6.07-4.28c5.4-1.94 8.33-1.23 8.33-1.23s-4.6-1.28-10.06 1.6c0 0-4.46 2-4.34 3.91ZM122.86 178.84s.67-2.34 5.89-4.54c5.21-2.2 8.2-1.56 8.2-1.56s-4.64-1.06-10 2.02c.15-.03-4.21 2.16-4.1 4.08ZM114.23 172.16s6.27-12.72 22.63-15.63c-.08-.05-15.84.96-22.63 15.63ZM107.75 160s1.8-3.25 3.55-4.34c1.75-1.1 15.53-7.3 15.53-7.3s-13.57 5.38-15.28 6.25c-1.7 1-3.8 5.4-3.8 5.4ZM100.39 148.58s21.64-2.25 21.92-2.3c.13-.02-13.65-.07-21.92 2.3ZM108.88 142.08s.72 2.1 5.47-.3l.57-.46-4.02.84s-1.3-.42-1.4-.62c-.1-.2-.49-1.56-.49-1.56s-1.08 1.19-.14 2.1ZM99.44 146.44s.9-2.3 1.8-2.89c.9-.59 4-2.56 5.43-4.24 0 0 2.2-4.33 3.28-6.74 0 0-3.18 6.07-5.08 7.55-1.9 1.48-4.32 3.2-4.32 3.2l-1.1 3.13ZM84.85 136.78s1.51-2.85 4.37-4.14c2.87-1.28 7.94-.15 10.75-3.44 2.74-3.2 2.94-6.6 7.97-7.84 0 0-3.66-.37-5.85 3.1-2.26 3.55-2.55 5.17-5.68 6.15-3.14.97-6.08.12-8.55 2.41-2.62 2.32-3.01 3.76-3.01 3.76ZM85.03 138.25s.4 1.87 7.78-.27 14.04-8.82 14.19-9.2c.08.05-12.01 10.62-21.97 9.47Z" fill="#C1C9CA"/></g><g opacity=".7" fill="#fff"><path opacity=".8" d="M114.9 173.48c.93.4 1.8.9 2.8 1.23 1.53.6 3.1.97 4.7 1.48.56-.45 1.19-1 1.67-1.5-2.13-1.14-4.35-2.34-6.57-3.17-.08-.06-.14.02-.14.02l-2.47 1.94ZM114.32 168.91l.29-.4.05-.09c-1.43-1.62-3.17-2.97-4.77-4.34a19.8 19.8 0 0 0-2.17 3.6c1.7 1.08 3.52 2.12 5.1 3.36l.14-.03c.46-.65.92-1.3 1.36-2.1ZM106.7 152.3c-.62 1.4-1.24 2.79-1.42 4.26.77.3 1.54.59 2.25.97l.12-.16c.5-.88.77-1.79 1.26-2.66l.35-.5a8.69 8.69 0 0 1-2.56-1.92ZM107.28 144.87a5.61 5.61 0 0 1-1.21-.36c-.09-.06-.14.02-.22-.04-.53-.12-.8-.07-1.18.28-.74.7-1.7 1.37-2.41 2.21l-.06.08c1.25-.21 2.53-.3 3.79-.51.2-.1.47-.15.61-.18.5-.01.92-.09 1.42-.1.22.03.42-.07.64-.04.83-.15 1.75-.23 2.59-.38l.06-.08.05-.08c-1.46-.18-2.79-.38-4.08-.8ZM90.67 142.22c1.05.25 2.15.42 3.2.67 1.41.26 2.82.52 4.28.7.12-.17.21-.47.3-.78.15-1.6 1.58-.84 2.67-1.18.62-1.4 1.4-2.68 1.96-4-1.92.12-3.84.24-5.78.22-1.4.6-2.8 1.2-4.31 1.6-1.57.5-3.18.7-4.77 1.05.87.5 1.63 1.15 2.45 1.72ZM88.95 136.85c1.33.2 2.92-.14 4.09-.42a6.7 6.7 0 0 0 1.2-.5c.48-.15.9-.22 1.35-.52 1.85-.89 3.68-1.92 5.46-2.88l.11-.16a20.2 20.2 0 0 0-2.22.02c-.67.26-1.34.53-2.04.65-1.23.35-2.59.37-3.8.87-.27.05-.53.24-.8.28-1.08.84-2.3 1.7-3.35 2.66ZM93 127.1c-.34.14-.75.21-1.09.34-.61.18-1.08.83-1.42 1.32-.66.77-1.4 1.47-2.14 2.17-.11.16-.09.3 0 .36a17.82 17.82 0 0 1 4.6-1.16c1.06-.11 2.12-.22 3.1-.4.48-.87.82-1.86 1.15-2.85-1.4.25-2.76.27-4.2.23ZM126.58 182.07c-.32.27-.66.76-.25 1.05.4.29.82.22 1.14-.05.25-.2.9-.6 1.05-.98.11-.16.17-.24.15-.38-.08-.42-.58-.4-.94-.41-.47.15-.79.42-1.16.77ZM125.55 179.88c-.31.27-.68.62-.22.83.33.23.8.07 1.06-.11.26-.2.54-.6.41-.94-.02-.13-.27-.3-.4-.28-.28.04-.76.2-.85.5ZM126.76 176.08c-.34.13-.65.4-.9.6-.57.45-.92.94-1.26 1.43-.2.1-.23.33-.35.49-.15.38.62.68.85.36.46-.66.87-1.23 1.51-1.63.77-.56 1.7-1.01 2.46-1.58-.86.01-1.56.13-2.31.33Z"/><path opacity=".5" d="M127.9 184.71c-.06.08.08.06.08.06.3-.27.78-.42 1.1-.7.05-.07-.1-.19-.17-.1-.33.12-.73.34-1.02.74Z"/></g><path d="m53.6 48.1 55.17 28.84s18.27 29.62 18.28 30.48c-.08.8 18.68 14.63 18.5 15.24-.18.6-.29 1.63-1.18 1.86-.9.22-13.7-6.1-13.7-6.1s8.86 17.12 7.47 18.59c-1.4 1.46-4.38.83-4.98.28-.51-.48-9.38-18.1-9.38-18.1s-10.2 16.05-9.52 14.2c1.63-4.22-.27-8.13-.06-9.81.17-1.11 3-10.86 1.4-11.87-1.54-.96-8.14-3.04-9.11-2.01-.97 1.03-3.26 22.17-3.57 24.52-.3 1.63-4.75 4.48-5.55-.98-.38-2.59-.2-25.58-.5-26.4-.28-.8.67-5.28 1.06-6.35.47-1.01.36-4.51-.29-6.2-.73-1.73-3.4-4.35-6.82-5.41-3.41-1.06-49.85-16.4-49.85-16.4L53.6 48.1Z" fill="#F9B4A6"/><path d="M82.5 61.97s-6.2 1.5-7.68 5.85c-2.52 7.4-.48 16.67-.48 16.67s-8.17-.38-12.97-.34c-2.8-.01-15.5-2.84-29.75-7.25-12.3-3.9-54.5-10.5-54.5-10.5l8.95-47.27s48.7 15.96 59.23 20.8c10.53 4.85 22.56 9.65 26.85 13.29l10.34 8.75Z" fill="#E4002B"/></svg>