<svg width="132" height="187" viewBox="0 0 132 187" fill="none" xmlns="http://www.w3.org/2000/svg"><path d="M102.86 133.8c-1.34-.27-3.44-1.16-3.57-2.46-.25-1.48.57-5.28-1.87-5.54-2.34-.26-2.37 3.36-2.93 3.82-.26.43-1.31 1.94-4.38.44l-2.05 2.53-5.47-2.36s1.28 2.68-.76 4.4a3.55 3.55 0 0 1-3.35.64c-.42-.16-.74-.33-1.06-.5-.96-.6-1.85-1.42-2.66-2.44l-.1-.09c-.59-.74-1.62-1.04-2.38-.56-.85.49-1.14 1.62-.75 2.49a14.7 14.7 0 0 0 2.03 3.1l.9 1.02a17.01 17.01 0 0 0 6.95 4.02c.2.08.71.13 1.23.28a5.35 5.35 0 0 1 4.35 5.18c.08 4.72 1.69 9.68 4.55 13.1 5.5 6.69 13.62 5.46 20.2.06 6.69-5.5 9.32-13.2 3.82-19.88-3.1-3.81-7.8-6.45-12.7-7.26Z" fill="#231F20"/><g opacity=".32" fill="#401204"><path d="m99.3 131.54-.01-.2c-.24-1.38.43-4.67-1.35-5.39.44 1.36.12 3.2.32 4.19.05.5.5.96 1.05 1.4ZM74.72 131.93c-.1-.09-.23-.28-.34-.37.12.2.23.28.34.37ZM110.6 159.44c-6.4 5.28-14.22 6.57-19.65.6.12.18.35.46.47.65 5.5 6.68 13.62 5.45 20.2.05 6.69-5.5 9.32-13.2 3.81-19.88-.21-.18-.33-.37-.56-.65 4.77 6.45 2.11 13.86-4.28 19.23ZM76.53 139.79c.75.53 1.5.95 2.35 1.37.84.42 1.68.73 2.5.95.22.08.72.13 1.24.28.93.2 1.87.61 2.54 1.25a5.16 5.16 0 0 0-3.57-2.46c-.61-.13-1.02-.2-1.23-.27-.83-.22-1.66-.54-2.5-.95a17.64 17.64 0 0 1-4.44-3.07c-.11-.09-.23-.28-.34-.37.12.2.35.47.47.66l.9 1.01c.66.54 1.32 1.07 2.08 1.6Z"/></g><path d="m102.07 155.45-1.21-1.46 6.24-5.16 1.21 1.46-6.24 5.16ZM92.46 143.73l-1.21-1.46 6.24-5.16 1.21 1.46-6.24 5.16ZM96.61 150.97l-1.65-2 8.32-6.89 1.66 2-8.33 6.89Z" fill="#A7A9AC"/><path d="M90.45 130.43 63.1 97.73c-.92-1.1-1.38.24-2.5 1.16-1.1.92-2.6 1.07-1.68 2.18l26.98 33.04s.15.49 1.65.44c1 0 2.9-1.1 2.87-2.4.15-1.53.03-1.72.03-1.72Z" fill="#AD795B"/><path d="M64.49 99.5c.1.1.03.3-.06.41l-3.8 3.1c-.1.11-.3.03-.42-.06-.1-.09-.03-.3.06-.4l3.8-3.1c.2-.13.3-.14.42.05ZM66.2 101.44c.1.09.02.3-.07.4l-3.8 3.1c-.1.12-.3.04-.41-.05-.11-.09-.03-.3.06-.4l3.8-3.1c.1-.02.3-.04.41.05ZM67.8 103.49c.12.09.04.3-.05.4l-3.8 3.1c-.1.12-.3.04-.42-.05-.1-.1-.03-.3.06-.41l3.8-3.1c.1-.11.3-.13.42.06ZM69.41 105.43c.11.1.03.3-.06.41l-3.8 3.1c-.1.11-.3.03-.41-.06-.11-.08-.03-.3.06-.4l3.8-3.1c.2-.02.4-.05.41.05ZM71.13 107.47c.1.09.03.3-.06.4l-3.8 3.11c-.1.11-.3.03-.42-.06-.1-.09-.03-.3.06-.4l3.8-3.1c.1-.12.3-.14.42.05ZM72.73 109.42c.11.09.03.3-.06.4l-3.8 3.1c-.1.12-.3.04-.41-.05-.11-.1-.03-.3.06-.4l3.8-3.11c.2-.02.3-.03.41.06ZM74.45 111.45c.1.1.03.3-.06.41l-3.8 3.1c-.1.11-.3.04-.42-.05-.1-.1-.03-.3.06-.41l3.8-3.1c.1-.11.3-.13.42.05ZM76.05 113.4c.11.1.03.3-.06.41l-3.8 3.1c-.1.11-.3.03-.41-.06-.1-.09-.03-.3.06-.4l3.8-3.1c.1-.02.3-.04.41.05ZM77.67 115.45c.1.09.03.3-.06.4l-3.8 3.1c-.1.12-.3.04-.41-.05-.11-.09-.03-.3.05-.4l3.81-3.1c.19-.13.29-.14.4.05ZM79.37 117.39c.11.09.03.3-.06.4l-3.8 3.1c-.1.12-.3.04-.4-.05-.12-.1-.04-.3.05-.41l3.8-3.1c.1-.01.3-.03.41.06ZM80.99 119.43c.1.1.03.3-.06.41l-3.8 3.1c-.1.11-.3.03-.41-.06-.11-.08-.03-.3.06-.4l3.8-3.1c.19-.13.3-.03.4.05ZM82.6 121.38c.1.1.02.3-.06.41l-3.81 3.1c-.09.11-.3.03-.4-.06-.12-.09-.04-.3.05-.4l3.8-3.1c.2-.03.4-.05.41.05ZM84.3 123.42c.12.09.04.3-.05.4l-3.8 3.1c-.1.12-.3.04-.41-.05-.11-.1-.03-.3.06-.4l3.8-3.11c.1-.11.3-.03.4.06ZM85.91 125.37c.11.08.04.3-.05.4l-3.81 3.1c-.09.12-.3.03-.4-.05-.12-.1-.04-.3.05-.41l3.8-3.1c.2-.02.3-.03.41.06Z" fill="#885646"/><path d="m103.53 153.67-43.89-53.1.31-.26 43.9 53.1-.32.26ZM104.31 152.97l-43.89-53.1.31-.26 43.9 53.11-.31.25ZM105.2 152.32 61.31 99.21l.31-.26 43.9 53.12-.32.25ZM105.91 151.7 62.02 98.59l.31-.26 43.9 53.11-.32.26Z" fill="#fff"/><path d="M112.33 160.77c.22.18.16.49-.02.7-.18.23-.5.16-.71-.02l-.69-.83c-.22-.18-.15-.5.03-.71.18-.22.49-.15.7.03l.7.83Z" fill="#F2E7E4"/><path d="M57.27 86.87c.09-.11.18-.22.17-.32l-.34-.37s-.2.02-.29.13l-1.27 1.34c-.09.1-.18.22-.17.32l.34.36s.2-.02.29-.13l1.27-1.33ZM62.32 91.08c.1-.11.18-.22.17-.32l-.34-.37s-.2.02-.29.13l-1.28 1.24c-.09.1-.18.22-.17.32l.34.36s.2-.02.3-.13l1.27-1.23Z" fill="#D6C3BD"/><path d="M58.81 86.2c.1-.1.08-.2-.04-.39l-1.1-1c-.12-.08-.32-.16-.41-.05l-.82.89c-.09.1-.08.2.04.4l1.1.99c.12.09.33.17.42.06l.81-.9ZM63.5 90.86c.1-.11.09-.21-.03-.4l-1.12-1.1c-.11-.08-.32-.16-.31-.06l-.82.79c-.1.1-.08.2.04.4l1.11 1.09c.11.09.32.16.31.06l.83-.78Z" fill="#181818"/><path d="M59.99 88.9c.09-.1.17-.32.17-.32l-.34-.36s-.2.02-.28.23l-1.37 1.34c-.09.11-.17.32-.17.32l.34.37s.2-.02.28-.23l1.37-1.35Z" fill="#D6C3BD"/><path d="M61.27 88.67c.1-.1.08-.2-.04-.4l-1.11-1.09c-.11-.09-.32-.17-.41-.06l-.92.9c-.08.1-.07.2.05.4l1.11 1.09c.11.09.32.17.4.06l.92-.9Z" fill="#181818"/><path d="M49.06 94.14c-.09.1-.27.23-.28.13l-.34-.37s.08-.21.17-.32l1.29-1.14c.09-.1.27-.23.29-.13l.33.37s-.08.21-.16.32l-1.3 1.14ZM53.21 99.34c-.09.11-.28.23-.29.13l-.34-.36s.08-.21.17-.32l1.28-1.24c.1-.1.28-.23.3-.13l.33.37s-.08.2-.17.32l-1.28 1.23Z" fill="#D6C3BD"/><path d="M48.42 95.7c-.09.12-.3.04-.3-.06l-1.03-1.1a.3.3 0 0 1-.04-.4l.93-.8c.09-.1.3-.03.3.07l1.02 1.1a.3.3 0 0 1 .04.4l-.92.8ZM52.94 100.58c-.1.1-.2.02-.31-.07l-1.02-1.1a.3.3 0 0 1-.04-.4l.82-.79c.1-.11.2-.02.31.07l1.02 1.1a.3.3 0 0 1 .04.4l-.82.79Z" fill="#181818"/><path d="M51.06 96.95c-.19.12-.28.23-.29.13l-.34-.37s.08-.2.17-.32l1.37-1.34c.19-.12.28-.23.29-.13l.34.36s-.08.21-.17.32l-1.37 1.35Z" fill="#D6C3BD"/><path d="M50.78 98.18c-.09.11-.3.03-.4-.06l-1.02-1.1a.3.3 0 0 1-.04-.4l.91-.9c.09-.1.3-.02.4.07l1.03 1.1a.3.3 0 0 1 .04.4l-.92.9Z" fill="#181818"/><path d="M48.04 89.01c.32 2.18 3.97 6.43 6.83 10.87l3.82.92 2.03-1.72 2.04-1.71-.2-3.9c-3.7-3.75-7.53-7.88-9.61-8.57-.32-.17-4.95 3.72-4.91 4.11Z" fill="#231F20"/><path d="M56.04 96.54a.65.65 0 1 1-1.02.81.65.65 0 1 1 1.02-.8ZM55.5 88.25a.65.65 0 1 1-1.02.81.65.65 0 1 1 1.02-.8ZM59 94.03c.23.28.64.34.92.1a.65.65 0 1 0-.8-1.02.65.65 0 0 0-.12.92ZM56.76 91.74a.65.65 0 1 0 1.02-.8.65.65 0 1 0-1.02.8ZM52 91.33c.12.28.07.7-.32.83-.3.13-.7.07-.84-.32-.13-.28-.07-.7.32-.83.29-.13.7-.07.83.32ZM53.02 94.54c.13.29.55.44.84.31a.68.68 0 0 0 .32-.83.68.68 0 0 0-.84-.32c-.39.14-.45.55-.32.84Z" fill="#D6C3BD"/><path d="m25.97 39.1 59.1 26.64S105.9 95.5 105.88 96.4c0 .9 20.34 14.1 20.2 14.73-.14.61-.23 1.73-1.1 2.02-.88.29-14.64-5.55-14.64-5.55s10.2 17.26 8.86 18.9c-1.34 1.65-4.52 1.06-5.16.63-.65-.44-10.91-18.3-10.91-18.3s-1.53 5.7-2.77 7.33-12.16 11.89-13.2 10.49c-1.16-1.4-2.4-2.78-3.32-3.89-.8-1.02 9.56-8.81 10.48-9.6.82-.9 1.54-10.62-.17-11.55-1.7-.83-8.62-2.74-9.6-1.54-.99 1.21-4.2 19.93-5.5 20.97-1.31 1.04-6.67-.23-5.92-2.82.74-2.58 3.55-21.37 3.17-22.13-.38-.77-1.6-3.96-1.11-5.01.38-1.15.12-4.74-.66-6.47-.88-1.72-3.86-4.33-7.47-5.27-3.62-.94-52.9-14.02-52.9-14.02L25.98 39.1Z" fill="#F9B4A6"/><path d="M56.82 51.83s-6.43 1.96-7.67 6.61c-2.21 7.87.56 17.34.56 17.34s-8.44.05-13.53.37c-2.9.2-16.29-1.96-31.45-5.75-12.99-3.2-119.82-18.1-119.82-18.1l65.9-35.62s54.6 9.93 65.9 14.3C28 35.38 40.8 39.6 45.37 43.16c4.59 3.55 11.44 8.68 11.44 8.68Z" fill="#E4002B"/></svg>