<svg width="172" height="159" viewBox="0 0 172 159" fill="none" xmlns="http://www.w3.org/2000/svg"><path d="m.72 112.25 2.8 3.61 20.3-30.93-2.65-1.7L.72 112.24Z" fill="#DDD"/><path d="M17.6 85.82s-6.22-9.13-4.41-15.38c1.01-3.56 4.86-10.93 10.93-12.06 2.82-.52 5.6-2.08 8.95-6.7 3-4.07 9.25-2.27 11.22.51 1.69 2.29 2.91 4.36.29 9.36-1.62 3.1 2.08 8.38.85 12-2.32 6.62-6.6 3.98-11.04 12.03-3.13 5.8-12.37 5.19-13 4.82-.5-.44-3.78-4.58-3.78-4.58Z" fill="#3D892B"/><path d="m18.63 92.7-1.67-1.1-.16.25 1.67 1.1.16-.25ZM16.39 93.79l-1.67-1.1-.17.24 1.67 1.1.17-.24ZM15.03 98.33l-1.25-.83-.16.25 1.25.83.16-.25ZM14.57 98.9l-1.66-1.1-.17.24 1.67 1.1.16-.24ZM8.98 105l-1.67-1.1-.16.25 1.66 1.1.17-.25ZM9.03 102.47l-.67-.44-.16.25.66.44.17-.25ZM9 104.29l-.67-.44-.17.25.67.44.16-.25ZM7.12 107.01l-1.25-.83-.17.25 1.26.83.16-.25ZM7.56 108.96l-1.67-1.1-.17.25 1.67 1.1.17-.25ZM4.24 110.59l-1.67-1.1-.17.25 1.67 1.1.17-.25ZM5.59 112.63l-1.26-.83-.16.25 1.25.83.17-.25ZM5.13 113.2l-1.67-1.1-.17.25 1.67 1.1.17-.25Z" fill="#231F20"/><path d="M66.86 41.04s-1.35 2.86-4.27 5l-5.72 4.21S46.45 72.35 44.8 72.76c-1.65.4-5.48-3.57-4.3-7.4 1.19-3.82 8.47-20.54 8.88-21.36.42-.82-2.32-5.45-5.36-6.85-3.05-1.4-6.63 1.3-8.13 3.9-2.5 4.53-2.89 8.87-4.56 13.4-2.2 6.14-5.83 1.39-8.12 6.28-1.62 3.5-2.02 9.9-6.86 8.66C14.8 69 18.6 44.9 21.92 38c2.72-5.4 12.17-16.5 17.88-17.82 10.17-2.24 19.42-2.45 36.2.5 14.33 2.54 62.66 27.42 62.66 27.42l-10.31 17.69s-41-21.66-47.91-22.91c-6.93-1.16-13.58-1.83-13.58-1.83Z" fill="#F9B4A6"/><path d="M42.86 36.03c-3.54.12-7.86-.77-10.88 1.75a13.64 13.64 0 0 0-3.64 5.37c-1.01 2.32-1.92 4.67-2.76 7.14-.94 2.85-1.8 5.83-2.58 8.83-.14.59.82.83.97.25 1.24-4.84 2.8-9.7 4.62-14.4.82-1.96 1.75-4 3.19-5.59a6.76 6.76 0 0 1 4.79-2.18c2.11-.18 4.12.03 6.2-.06.76-.11.72-1.16.09-1.11Z" fill="#F3A08E"/><path d="M71.6 43.5s6.94-3.28 8.04-9.2c1.07-5.81 2.63-13.88 2.63-13.88s8.9-1.33 12.5-1.23c3.6 0 23.85 1.98 41.5 9.6a6122.17 6122.17 0 0 1 51.63 22.93l-3.4 49.5s-58.02-19.3-70.83-26.92c-12.8-7.61-27.5-15.51-32.47-20.7-4.97-5.2-9.6-10.1-9.6-10.1Z" fill="#E4002B"/></svg>