<svg width="191" height="229" viewBox="0 0 191 229" fill="none" xmlns="http://www.w3.org/2000/svg"><path opacity=".7" d="M72.28 219.07s1.66 1.11-.59 2.5c-2.2 1.3-15.03 1.25-16.53-.83 0 0-1.33-.89.92-2.27l.2-2.28s-1.08-.36-.75-1.22c.33-.86 1.3-1.05 1.3-1.05l-.16-3.36s-7.36-11.66-7.7-13.32a7.97 7.97 0 0 1 .9-5.3c.95-1.77 3.37-5.57 3.37-5.57s1.52-1.74 2.63-1.96c1.11-.22 1.36-.42 1.36-.42l3.86-3.43s.4-.22-.14-.7c-.44-.41-1.52-1.85-1.35-2.46.08-.67 1.28-3 1.28-3s.83-1.25 2.08-1.13c1.25.11 3.6 0 3.6 0s-2.85-2.39-2.65-3.22c.2-.83 1.7-2 1.25-3.13-.44-1.14-3.46-4.36-4.26-7.3-.8-2.94-.9-7.1-.07-8.71.83-1.6 3.05-2.77 3.05-2.77s9.96-2.12 16 0c6 2.2 14.08 6.28 14.08 8.08.06 1.72 1.5 3.53-.98 8.13-2.47 4.6-2.33 3.49-2.89 3.96-.47.53-7.4 4.07-7.66 4.26-.25.2.89 1.2.36 1.8l-.53.61s.78.28.08.78c-.69.5-2.74 1.77-2.75 2.85 0 1.09 2.66 6.1 2.8 6.44 0 .36-2.75 3.22-2.75 3.22s5 6.35 4.73 7.49c-.28 1.14-3.48 6.82-3.34 7.51.14.7 1.2 1.28.22 2.2-.97.9-8.71 6.2-8.71 6.2l-.37 2.16c.11-.17 1.14.64.97 1.6-.17.98-.86 1.12-.86 1.12v2.52Z" fill="#92C9CA"/><g opacity=".4"><path d="M63.98 218.7c-4.54-.03-8.2.77-8.24 1.7-.02.95 3.7 1.87 8.24 1.9 4.55.04 8.21-.76 8.24-1.7 0-1.09-3.69-1.87-8.24-1.9Z" fill="#909797"/><path d="M71.78 218.74s-6.74-2.7-15.37-.41c-.05.08 8.19-3.07 15.37.4ZM72 216.24s-1.6-1.92-7.43-1.84c-5.82.08-8.35 1.88-8.35 1.88s3.89-2.94 10.24-2.18c-.09-.06 4.88.25 5.54 2.14Z" fill="#C1C9CA"/><path d="M72.28 214.02s-1.6-1.91-7.2-1.81c-5.75.13-8.22 1.85-8.22 1.85s3.83-2.85 9.96-2.13c0 0 4.88.26 5.46 2.1ZM72.23 211.22s-1.47-1.94-7.12-2.12c-5.66-.17-8.22 1.5-8.22 1.5s3.95-2.67 10.05-1.72c-.14.03 4.71.51 5.3 2.34ZM77.87 201.88s-10.41-9.6-26.73-6.44c.06-.08 15.13-4.8 26.73 6.44ZM79.55 188.21s-2.85-2.39-4.87-2.78c-2.03-.39-17.11-1.21-17.11-1.21s14.58.13 16.5.32c1.94.34 5.48 3.67 5.48 3.67ZM82.32 174.9s-21 5.69-21.28 5.74c-.14.03 12.7-4.97 21.28-5.74ZM72.06 171.9s.08 2.21-5.22 1.68l-.69-.23 4.05-.66s1.05-.85 1.08-1.08c.03-.22-.1-1.63-.1-1.63s1.44.72.88 1.91ZM82.43 172.57s-1.66-1.83-2.71-2.06c-1.06-.22-4.66-.94-6.6-2 0 0-3.6-3.25-5.49-5.11 0 0 5.16 4.53 7.46 5.22 2.3.7 5.18 1.42 5.18 1.42l2.16 2.53ZM92.57 158.3s-2.44-2.11-5.57-2.28c-3.13-.17-7.46 2.7-11.26.65-3.71-2-5.13-5.1-10.26-4.45 0 0 3.28-1.66 6.58.78 3.38 2.5 4.23 3.92 7.5 3.7 3.28-.21 5.72-2.07 8.86-.82 3.27 1.23 4.15 2.42 4.15 2.42ZM92.93 159.74s.3 1.89-7.35 2.55c-7.66.65-16.28-3.19-16.56-3.5-.05.1 15.03 5.6 23.91.95Z" fill="#C1C9CA"/></g><g opacity=".7" fill="#fff"><path opacity=".8" d="M77.73 203.35c-.72.72-1.36 1.5-2.16 2.16-1.23 1.11-2.56 2.02-3.86 3.08-.7-.23-1.47-.5-2.11-.81 1.58-1.83 3.22-3.74 5-5.32.06-.08.14-.03.14-.03l3 .92ZM76.63 198.88l-.42-.27-.08-.06c.75-2.02 1.9-3.9 2.9-5.76 1.16.77 2.32 1.55 3.32 2.58-1.2 1.6-2.53 3.24-3.56 4.96l-.14.03c-.66-.45-1.33-.9-2.02-1.48ZM77.76 180.64a15.33 15.33 0 0 1 2.85 3.47c-.6.55-1.22 1.1-1.75 1.71l-.16-.1c-.78-.65-1.36-1.4-2.14-2.03l-.5-.34a8.68 8.68 0 0 0 1.7-2.71ZM74.55 173.92c.4-.22.7-.5 1-.77.06-.09.14-.03.2-.12.44-.3.72-.35 1.19-.16.94.39 2.08.67 3.05 1.2l.08.05c-1.25.25-2.47.64-3.72.88-.22-.02-.5.03-.63.06-.48.16-.9.25-1.36.41-.2.11-.42.09-.61.2-.84.16-1.72.41-2.56.58l-.08-.06-.08-.06c1.3-.69 2.47-1.35 3.52-2.21ZM89.1 165.48c-.9.6-1.86 1.16-2.75 1.77-1.22.75-2.44 1.5-3.75 2.19-.16-.11-.36-.36-.55-.61-.72-1.45-1.78-.23-2.91-.15-1.08-1.08-2.28-2-3.27-3.02a79.33 79.33 0 0 0 5.46-1.88c1.53.06 3.05.11 4.6-.05 1.64-.11 3.22-.5 4.83-.74-.64.77-1.1 1.66-1.66 2.49ZM88.77 159.85c-1.16.66-2.77.91-3.97 1.08-.5.02-.86.02-1.3-.03-.5.02-.92.1-1.44 0-2.05-.18-4.13-.48-6.13-.74l-.17-.1c.67-.28 1.33-.56 2.08-.78.73 0 1.45 0 2.14-.14 1.28-.1 2.55-.57 3.86-.54.27-.06.58.02.86-.03 1.3.39 2.74.75 4.07 1.28ZM81.49 152.21c.36 0 .77-.08 1.13-.08.64-.05 1.3.4 1.8.72.9.48 1.83.87 2.78 1.26.16.1.2.25.14.33-1.59.02-3.22.13-4.72.57-1.03.28-2.05.56-3.02.75-.78-.64-1.44-1.44-2.1-2.25 1.38-.27 2.65-.75 3.99-1.3ZM69.92 215.57c.4.14.89.47.61.89-.28.42-.7.5-1.08.36-.3-.08-1.05-.22-1.33-.53-.17-.11-.25-.17-.28-.3-.08-.42.4-.59.72-.73.5-.02.9.12 1.36.31ZM70.1 213.16c.38.14.85.33.5.7-.23.33-.73.35-1.04.27-.3-.08-.72-.36-.72-.72-.02-.14.14-.4.28-.42.28-.05.78-.08.97.17ZM67.6 210.05c.36 0 .75.14 1.05.22.7.23 1.2.56 1.7.9.22.02.33.22.5.33.27.3-.34.86-.67.63a5.35 5.35 0 0 0-2-.97c-.91-.25-1.94-.34-2.85-.59.8-.3 1.5-.44 2.27-.52Z"/><path opacity=".5" d="M69.64 218.51c.09.06-.05.09-.05.09-.4-.14-.9-.12-1.28-.26-.08-.05.03-.22.11-.16.36 0 .8.05 1.22.33Z"/></g><path d="m89.84 64.33-41.11 46.74s-6.4 34.21-6.1 35.02c.37.72-12.17 20.37-11.78 20.87.39.5.86 1.41 1.77 1.3.92-.1 10.59-10.6 10.59-10.6s-2.11 19.16-.28 20.02c1.83.86 4.38-.8 4.74-1.52.31-.64 2.25-20.27 2.25-20.27s15.3 11.3 14 9.84c-3.05-3.36-2.69-7.7-3.49-9.19-.55-.97-6.7-9.05-5.56-10.57 1.08-1.44 6.5-5.76 7.77-5.15 1.28.6 11.01 19.5 12.15 21.59.86 1.42 6.04 2.48 4.83-2.9-.58-2.56-9.01-23.95-9.04-24.81-.03-.86-2.52-4.7-3.26-5.55-.8-.78-1.97-4.08-1.97-5.89.06-1.88 1.62-5.3 4.42-7.5 2.8-2.22 40.62-33.24 40.62-33.24L89.84 64.33Z" fill="#F9B4A6"/><path d="M67.87 87.66s6.32-.83 9.26 2.7c5.01 6 6.44 15.37 6.44 15.37s7.5-3.29 11.99-4.98c2.6-1.02 13.43-8.22 25.15-17.46 10.08-8.06 47.08-29.4 47.08-29.4l-25.36-40.88s-39.7 32.4-47.78 40.7c-8.08 8.31-17.58 17.12-20.28 22.06l-6.5 11.89Z" fill="#E4002B"/></svg>