<svg width="314" height="308" viewBox="0 0 314 308" fill="none" xmlns="http://www.w3.org/2000/svg"><path d="M214.65 159.23s4.62-4.46 8.39-5.9c3.85-1.4 7.35-1.09 7.35-1.09s20.68-13.07 22.56-13.08c1.88 0 3.53 1.65 1.08 5.48-2.45 3.82-17.6 14.29-18.3 15.07-.7.77.23 5.4 3.07 7.83 2.84 2.43 7.58-1.1 9.8-3.48 4-4.09 5.8-8.65 8.87-13.07 4.22-5.98 6.76.18 10.66-4.4 2.82-3.2 5.19-10.16 10-7.25 1.56.95-12.06 28.91-15.38 32.22-3.4 3.27-21.38 15.28-24.54 14.03-3.08-1.22-34.02-.44-37.38-.8-12.65-1.28-81.25 13.24-81.25 13.24l7.38-25.25s53.44-7.8 69.43-5.41c11.16-2.4 18.26-8.14 18.26-8.14Z" fill="#F9B4A6"/><path d="M240.04 168.67c4.28 1 9.04 1.91 13.05-.52a19.6 19.6 0 0 0 5.06-4.92c1.69-2.2 3.28-4.43 4.92-6.75a102.3 102.3 0 0 0 5.02-8.14c.25-.55-.65-.97-.9-.43-2.61 4.63-5.63 9.19-8.82 13.43-1.43 1.88-2.86 3.75-4.74 5.18a10.75 10.75 0 0 1-6.17 2.09c-2.46.06-4.84-.5-7.27-.97-.63-.07-.78.96-.15 1.03Z" fill="#F3A08E"/><path d="M260.99 150.54s.1-4.7 2.38-6.5c2.27-1.81 6.78-2.47 6.78-2.47s-.86 4.9-2.38 6.73c-1.6 1.79-6.78 2.24-6.78 2.24Z" fill="#B25026"/><path d="M279.44 122.4s.98-3.52 3.02-4.1c2.04-.6 5.25.57 5.25.57s-2.9 1.96-4.36 2.71c-1.5.85-3.92.82-3.92.82Z" fill="#723517"/><path d="M300.8 111.63s-.42-2.4.58-3.37c1-.96 3.24-1.25 3.24-1.25s.06 2.46-.54 3.5c-.64.92-3.28 1.12-3.28 1.12ZM311.63 104.77s-2.39-.56-2.78-1.85c-.4-1.29.22-3.54.22-3.54s2.3.97 2.87 1.9c.56.92-.31 3.5-.31 3.5ZM292.9 117.21c.49-.1.86.3.87.74-.03.76-.13 1.93-.74 2.52-.57.51-1.59.8-2.34 1-.5.1-.95-.33-.97-.77.07-.86.22-1.89.61-2.48.48-.55 1.72-.85 2.57-1ZM303.06 113.9c.44-.01.97 1.23.89 1.63-.16.81-.64 1.14-1.4 1.56-.74.42-1.77.5-2.44.51-.54-.03-1.37-1.08-1.25-1.57.25-.77 1.09-1.15 1.57-1.7.52-.42 1.77-.5 2.63-.43Z" fill="#44230E"/><path d="M261.87 149.84c.36.4 1.5-.62 1.72-.85.56-.5 1.09-1.15 1.6-1.79a61.3 61.3 0 0 1 3.96-4.44c.22-.23-.2-.53-.41-.3-1.22 1.2-2.35 2.65-3.52 3.98-.52.64-1.04 1.28-1.65 1.88-.22.23-.4.37-.61.6-.18.14-.31.19-.48.32-.05.1-.18.14-.18.14l-.13.05c-.14.05-.05.1.09.04-.23-.21-.63.15-.4.37Z" fill="#CE7657"/><path d="M275.44 135.44c.35-.28.85-.16 1.13.19.46.66.85 1.72.6 2.49a5.34 5.34 0 0 1-1.51 2.05c-.4.37-.98.2-1.22-.23-.33-.71-.8-1.82-.73-2.45.07-.62 1.03-1.5 1.73-2.06Z" fill="#44230E"/><path d="M259.24 141.77c.44-.01.97 1.23.89 1.63-.16.81-.64 1.14-1.4 1.56-.74.42-1.77.5-2.44.51-.54-.03-1.37-1.08-1.25-1.58.25-.76 1.09-1.14 1.57-1.7.52-.41 1.77-.49 2.63-.42Z" fill="#824523"/><path d="M216.7 184.6s-6.41-4.22-6.62-10.17c-.2-5.94-.73-14.03-.73-14.03s-8.6-2.59-12.11-3.12c-3.55-.44-23.88-1.34-42.31 3.85-15.99 4.45-45.2 13.1-45.2 13.1L0 206.33l123.9 12.93s33.35-4.28 47.1-10.1c13.77-5.83 29.32-11.47 34.97-16 5.65-4.54 10.74-8.57 10.74-8.57Z" fill="#E4002B"/></svg>