<svg width="269" height="177" viewBox="0 0 269 177" fill="none" xmlns="http://www.w3.org/2000/svg"><path d="M58.47 139.32c1.16-.72 2.8-2.3 2.47-3.56-.29-1.47-2.4-4.74-.2-5.84 2.09-1.07 3.4 2.3 4.08 2.53.4.31 1.91 1.36 4.25-1.13l2.82 1.63 4.28-4.14s-.25 2.97 2.26 3.85c1.59.5 2.77-.12 3.37-.59.33-.3.57-.56.8-.83.7-.91 1.24-1.99 1.63-3.23l.07-.12c.28-.9 1.14-1.55 2.02-1.36.97.15 1.64 1.11 1.58 2.06a14.72 14.72 0 0 1-.79 3.62l-.49 1.27a17.05 17.05 0 0 1-5.07 6.22c-.17.14-.63.37-1.06.7a5.35 5.35 0 0 0-2.23 6.38c1.6 4.44 1.84 9.65.38 13.87-2.79 8.2-10.81 9.91-18.88 7.2-8.2-2.79-13.39-9.06-10.6-17.26 1.55-4.65 5.01-8.78 9.31-11.27Z" fill="#231F20"/><g opacity=".32" fill="#401204"><path d="m61 135.96-.06-.2c-.26-1.38-2.05-4.21-.64-5.52.07 1.43 1.02 3.04 1.18 4.03.13.49-.13 1.07-.49 1.69ZM84.13 127.63c.07-.13.12-.35.19-.47-.05.22-.12.34-.2.47ZM60.31 166.04c7.85 2.68 15.61 1.13 18.58-6.39-.04.22-.16.56-.2.78-2.8 8.2-10.82 9.91-18.89 7.2-8.2-2.79-13.38-9.06-10.6-17.26.15-.24.2-.46.3-.8-2.18 7.72 2.93 13.7 10.81 16.47ZM85.22 135.61c-.52.76-1.07 1.43-1.71 2.11a13.4 13.4 0 0 1-2.01 1.78c-.17.15-.63.38-1.06.7a5.45 5.45 0 0 0-1.93 2.06 5.16 5.16 0 0 1 2.46-3.55c.53-.35.9-.55 1.06-.7.7-.5 1.37-1.08 2.01-1.77a17.68 17.68 0 0 0 3.06-4.44c.07-.12.12-.34.19-.46-.04.22-.16.56-.2.78-.2.46-.3.8-.5 1.26-.42.74-.85 1.47-1.37 2.23Z"/></g><path d="m66.87 159.3.62-1.8-7.67-2.62-.61 1.8 7.66 2.62ZM71.71 144.94l.62-1.8-7.67-2.62-.61 1.8 7.66 2.62ZM70.39 153.17l.84-2.46L61 147.22l-.84 2.46 10.23 3.5Z" fill="#A7A9AC"/><path d="M68.89 131.79 82.9 91.53c.47-1.37 1.38-.27 2.75.2 1.36.46 2.81.08 2.35 1.44l-13.56 40.45s.04.5-1.39.99c-.94.35-3.1 0-3.53-1.23-.68-1.38-.63-1.6-.63-1.6Z" fill="#AD795B"/><path d="M82.23 93.67c-.07.12.08.3.2.36l4.66 1.56c.12.07.29-.08.36-.2.07-.13-.08-.3-.2-.36l-4.66-1.56c-.22-.04-.31-.02-.36.2ZM81.32 96.09c-.07.12.08.29.2.36L86.18 98c.12.07.29-.08.36-.2.07-.12-.08-.29-.2-.36l-4.66-1.55c-.1.02-.29.07-.36.2ZM80.54 98.57c-.08.12.07.3.2.36l4.65 1.56c.12.07.3-.08.36-.2.07-.12-.07-.3-.2-.36l-4.65-1.56c-.13-.07-.32-.02-.36.2ZM79.72 100.96c-.07.12.08.3.2.36l4.66 1.56c.12.07.29-.08.36-.2.07-.13-.08-.3-.2-.36l-4.66-1.56c-.19.05-.38.1-.36.2ZM78.84 103.47c-.07.13.08.3.2.36l4.66 1.56c.12.07.28-.08.36-.2.07-.12-.08-.3-.2-.36l-4.66-1.56c-.12-.07-.32-.02-.36.2ZM78.03 105.86c-.07.13.07.3.2.36l4.65 1.56c.12.07.3-.08.36-.2.07-.12-.07-.3-.2-.36l-4.65-1.56c-.2.06-.3.08-.36.2ZM77.14 108.38c-.07.12.08.29.2.36l4.66 1.55c.12.07.29-.08.36-.2.07-.12-.08-.29-.2-.36l-4.66-1.56c-.12-.07-.31-.01-.36.2ZM76.33 110.76c-.07.13.08.3.2.36l4.66 1.56c.12.07.29-.08.36-.2.07-.12-.08-.29-.2-.36l-4.66-1.56c-.1.03-.29.08-.36.2ZM75.54 113.25c-.07.12.08.29.2.36l4.66 1.56c.12.07.29-.08.36-.2.07-.13-.08-.3-.2-.36l-4.66-1.56c-.22-.05-.31-.02-.36.2ZM74.63 115.67c-.07.12.08.28.2.36l4.66 1.55c.12.07.29-.08.36-.2.07-.12-.08-.29-.2-.36L75 115.47c-.1.02-.29.07-.36.2ZM73.85 118.15c-.07.12.07.3.2.36l4.65 1.56c.12.07.3-.08.36-.2.07-.13-.07-.3-.2-.36l-4.65-1.56c-.22-.04-.3.08-.36.2ZM73.03 120.54c-.07.12.08.3.2.36l4.66 1.56c.12.07.29-.08.36-.2.07-.13-.08-.3-.2-.36l-4.66-1.56c-.19.05-.38.1-.36.2ZM72.15 123.05c-.07.13.08.3.2.36l4.66 1.56c.12.07.29-.08.36-.2.07-.12-.08-.3-.2-.36l-4.66-1.56c-.12-.07-.29.08-.36.2ZM71.34 125.44c-.07.12.07.3.2.36l4.65 1.56c.13.07.3-.08.36-.2.08-.12-.07-.3-.2-.36l-4.65-1.56c-.2.05-.3.08-.36.2Z" fill="#885646"/><path d="m64.87 158.15 22.27-65.2-.38-.13-22.27 65.2.38.13ZM63.9 157.78l22.26-65.2-.38-.14-22.27 65.2.38.14ZM62.83 157.48l22.27-65.2-.38-.13-22.27 65.2.38.13ZM61.95 157.15l22.26-65.2-.38-.14-22.26 65.2.38.14Z" fill="#fff"/><path d="M59.15 167.9c-.14.25.03.51.28.66.24.14.5-.04.65-.28l.35-1.02c.14-.25-.04-.51-.28-.66-.25-.14-.51.04-.65.28l-.35 1.03Z" fill="#F2E7E4"/><path d="M84.51 79.3c-.12-.07-.24-.14-.27-.24l.19-.46s.2-.05.31.02l1.67.8c.12.07.24.14.27.24l-.19.46s-.2.05-.32-.02l-1.66-.8ZM81.28 85.03c-.13-.08-.25-.15-.27-.24l.18-.47s.2-.05.32.02l1.63.7c.13.08.25.15.27.24l-.18.47s-.2.05-.32-.02l-1.63-.7Z" fill="#D6C3BD"/><path d="M82.84 79.23c-.12-.07-.15-.17-.1-.39l.68-1.32c.07-.12.24-.27.36-.2l1.07.54c.13.08.15.17.1.4l-.68 1.31c-.07.12-.23.27-.36.2l-1.07-.54ZM80.1 85.24c-.13-.07-.16-.17-.11-.39l.66-1.42c.07-.12.23-.27.26-.17l1.05.45c.12.07.15.16.1.38l-.66 1.42c-.07.12-.23.27-.26.17l-1.05-.44Z" fill="#181818"/><path d="M82.69 82.17c-.12-.07-.27-.24-.27-.24l.18-.47s.2-.05.35.12l1.75.77c.13.08.27.24.27.24l-.18.47s-.2.05-.34-.12l-1.76-.77Z" fill="#D6C3BD"/><path d="M81.4 82.4c-.12-.07-.14-.16-.1-.38l.66-1.42c.07-.12.24-.27.36-.2l1.17.52c.13.07.15.16.1.38l-.65 1.42c-.07.12-.24.27-.36.2l-1.17-.52Z" fill="#181818"/><path d="M94.76 83.2c.12.07.34.11.31.02l.2-.47s-.16-.17-.28-.24l-1.6-.6c-.13-.07-.35-.12-.32-.02l-.2.46s.16.17.28.24l1.6.6ZM92.72 89.53c.12.07.34.12.32.02l.18-.46s-.14-.17-.27-.24l-1.63-.7c-.13-.07-.34-.12-.32-.02l-.19.46s.15.17.27.24l1.64.7Z" fill="#D6C3BD"/><path d="M95.92 84.44c.12.07.29-.08.26-.17l.56-1.4a.3.3 0 0 0-.1-.38l-1.15-.42c-.12-.07-.29.08-.26.17l-.56 1.4a.3.3 0 0 0 .1.38l1.15.42ZM93.42 90.6c.12.06.19-.06.26-.18l.56-1.4a.3.3 0 0 0-.1-.38l-1.05-.45c-.12-.07-.2.06-.27.18l-.56 1.39a.3.3 0 0 0 .1.39l1.06.44Z" fill="#181818"/><path d="M93.89 86.53c.22.05.34.12.31.02l.2-.46s-.16-.17-.28-.24l-1.76-.77c-.22-.05-.34-.12-.31-.02l-.2.46s.16.17.28.24l1.76.77Z" fill="#D6C3BD"/><path d="M94.58 87.59c.13.07.3-.08.36-.2l.57-1.4a.3.3 0 0 0-.1-.38l-1.18-.51c-.12-.07-.29.07-.36.2l-.56 1.39a.3.3 0 0 0 .1.38l1.17.52Z" fill="#181818"/><path d="M93.9 78.04c.47 2.15-1.44 7.42-2.55 12.58l-3.24 2.21-2.5-.88-2.52-.89-1.2-3.71c2.14-4.82 4.27-10.04 5.97-11.42.24-.27 5.94 1.73 6.04 2.11Z" fill="#231F20"/><path d="M89.08 87.92a.65.65 0 1 0 1.25.39.65.65 0 1 0-1.25-.4ZM86.66 79.97a.65.65 0 1 0 1.24.4.65.65 0 1 0-1.24-.4ZM85.42 86.61a.65.65 0 1 1-1.24-.4.65.65 0 1 1 1.24.4ZM86.71 83.68a.65.65 0 1 1-1.24-.4.65.65 0 1 1 1.24.4ZM91.02 81.6c-.02.32.18.68.6.67.31.02.67-.18.67-.59.02-.31-.18-.68-.6-.67-.31-.02-.67.18-.67.6ZM91.2 84.97a.68.68 0 0 1-.67.6.68.68 0 0 1-.6-.68.68.68 0 0 1 .67-.59c.42 0 .62.36.6.67Z" fill="#D6C3BD"/><path d="M96.89 23.54 51.03 69.38s-8.95 35.18-8.62 36.03c.33.84-14.03 20.4-13.68 20.92.35.53.83 1.54 1.75 1.5.92-.04 11.73-10.36 11.73-10.36s-3.44 19.75-1.6 20.8c1.83 1.07 4.6-.6 5.05-1.23.45-.64 3.73-20.97 3.73-20.97s3.44 4.78 5.18 5.87c1.74 1.09 15.58 6.82 16.06 5.14.59-1.7 1.26-3.44 1.73-4.8.39-1.25-12.06-4.87-13.2-5.29-1.08-.54-5.2-9.38-3.93-10.85 1.29-1.38 7.1-5.62 8.44-4.84 1.35.78 10.98 17.16 12.57 17.66 1.58.51 6.14-2.56 4.53-4.72-1.6-2.16-10.88-18.73-10.8-19.58.09-.85.1-4.27-.73-5.09-.76-.93-1.79-4.38-1.67-6.28.21-1.92 2.08-5.41 5.12-7.57 3.05-2.16 44.52-31.82 44.52-31.82L96.89 23.54Z" fill="#F9B4A6"/><path d="M72.54 46.37s6.71-.44 9.51 3.47c4.86 6.58 5.61 16.41 5.61 16.41s7.91-2.93 12.79-4.44c2.78-.84 14.54-7.6 27.38-16.5C138.85 37.74 233.5-14 233.5-14l-74.24-10S111.7 4.6 102.69 12.68c-9.02 8.1-19.5 16.58-22.52 21.52-3.03 4.95-7.63 12.17-7.63 12.17Z" fill="#E4002B"/></svg>