<svg width="279" height="140" viewBox="0 0 279 140" fill="none" xmlns="http://www.w3.org/2000/svg"><path d="M195.8 36.1s-6 3.8-9.8 5.6c-4.1 2-8.5 6-8.5 6S154.2 58.9 152.4 60c-1.9 1.1-4.6 5.1-.1 7.5 4.5 2.4 29.3-6.9 30.4-6.6 1.1.3-6.8-7.8-8.3-3.9-1.4 3.9-7.5 3.2-11 2.2-6.2-1.8-5.7-1.5-11.8-1.9-4.3-.3-6.7-2.8-14.6-3.6-9.8-1-9.8-2-14.4 5.5-1.2 1.7 25.8 13.7 30.9 15 5.1 1.3 29.4 3.1 31.8.2 2.3-2.9 24.7-16.6 28.6-17 14-1.3 71.4 8.2 71.4 8.2l7.4-30.3s-55.8-.7-76.6-.3c-10.6-.9-20.3 1.1-20.3 1.1Z" fill="#F9B4A6"/><path d="M173.7 58.2c-1.6 2-4 3.1-6.4 3.8-3.1.9-6.4 1.3-9.7 1.4-7.1.2-14.4-.7-21.2-2.7-2.9-.8-5.9-1.9-8.4-3.6-.5-.4-1 .5-.5.9 2.3 1.5 4.9 2.5 7.5 3.4 3.5.9 7 1.6 10.5 2.1 3.7.5 7.4.8 11.2.8 3.4 0 6.8-.3 10.1-1.2 2.8-.7 5.8-2 7.7-4.3.4-.4-.3-1.1-.8-.6Z" fill="#F3A08E"/><path d="M227.1 61s4.7-7.3 2.3-13.5c-2.4-6.2-11.2-13.3-11.2-13.3L234.8 24c3.5-2.1 24-12.2 45.4-15.2 18.5-2.6 52.5-6.9 52.5-6.9l5.8 52.9s-36.3 10.6-53.1 10.9c-16.8.3-35.4 1.4-43.3-.7l-15-4Z" fill="#E4002B"/><path d="M156 3s-1.6 5.6-1.7 6.6c-.2.9-.4 5 .7 5.7 1.1.7 2.2.8 2.2.8s.2.9.2 1.5-1 3.4-1 3.4l4.7 3.1 4.1-3.5-1.9-3.1s-.6-1.7-.7-2.4c-.1-.7.1-2.3.1-2.3l1.3-.6s3.2-4 2.1-5.4c-1.1-1.4-4.4-4.9-4.9-4.8-.6.1-3.6.4-3.6.4L156 3Z" fill="#F9B4A6"/><path d="M157.1 16s1.4 0 2.1-.4c.5-.3 1.7-1.3 1.9-1.3.2.1 0 1.2-.3 1.7-.3.4-1.8 1.1-2.4 1.2-.7.1-1 0-1 0l-.3-1.2Z" fill="#EA826A"/><path d="M163.4.6s-3-.6-3.8-.3c-.8.3-3.6 1.7-4.2 2.4-.7.7-1.6 2.2-1.6 2.5 0 .2.9-.2.9-.2s-.3 1.9-.7 2.2c-.2.2.7.5.7.5s.5-2.8 1.1-3c.5-.3 3.1-1.2 3.3-1.1.2.1.8 1.9 1.3 2.3.5.5 1.4 1.2 1.4 1.2l-.2-1s.8 0 1 .6c.2.5.1 1 .1 1.3-.3 1.7.8.1.6 1.3-.1 1.1.5.6.5.4 0-.2.5-.4.7-.2.2.1.3.6 0 1.4-.1.3-.5 1.3-1.5 1.6-.6.2-.4 2.1-.4 2.1l1-1.5s3.3-2.7 3.1-4.8c-.2-2.3-2.5-6.1-2.6-6.2l-.7-1.5Z" fill="#231F20"/><path d="M160.3 7.7c.1 0 .3 0 .3-.1s-.4-.7-.8-.8c-.4 0-.9.1-.9.1 0 .1 0 .3.1.3s.6-.1.8-.1c.1 0 .4.6.5.6ZM156.9 6.9c.1 0 .3 0 .3-.1s-.2-.5-.7-.6c-.5-.1-.8.3-.8.4 0 .1.2.2.2.2s.2-.3.5-.2c.3 0 .4.3.5.3ZM159.59 8.73c.06-.38-.01-.71-.18-.74-.16-.03-.35.26-.42.64-.06.38.01.7.17.74.17.03.36-.26.43-.64ZM155.9 8.8c.2 0 .4-.3.4-.6.1-.3 0-.7-.2-.7s-.4.3-.4.6 0 .6.2.7Z" fill="#231F20"/><path d="M156.7 10.3c.1 0 .2-.2.1-.3 0-.1-.2-.3-.2-.4 0-.1.3-.3.3-.4 0-.1-.1-.2-.2-.2s-.5.5-.5.8c0 .2.4.5.5.5ZM163.5 10.3c-.1 0-.4 1.2-.3 1.2.1 0 .6-.4.7-.6.1-.2-.3-.6-.4-.6ZM155.8 12c0 .1.3.4.6.4s.7-.2.7-.3c0-.1-.3-.1-.6-.1s-.7-.1-.7 0Z" fill="#EA826A"/><path d="m165.4 11.1.9-1.3c3.8 4.1 4.6 4.8 5 5.2 0 0-.9 0-3.9-2.2-.7-.5-1.9-1.6-2-1.7Z" fill="#2BB673"/><path d="m160.4 3.8.3-.3-3.2-2.2-.3.4 3.2 2.1Z" fill="#F4F2F3"/><path d="M157.3 1.8c.5-.4 1.7-1.3 2.5-1 .2.1.6.5.8.9v.1c.4 1-.3 2-.3 2.1 1.3 1 3.1 2.5 4.9 4.6.4.5.6.8 1.1 1.3 2.3 2.9 4.8 5.2 4.9 5.1.1-.1-.9-1.3-4.7-5.7.2-.3 1.4-2.1 1-4.3-.4-2.1-2-3.2-2.7-3.7-.4-.2-2.1-1.3-4.4-1.2 0 0-1.8.1-3.3 1.3-.1 0-.3.3-.2.3.1.1.4.2.4.2Z" fill="#D1D3D4"/><path d="m145.2 77.94-.9 13.57 5.8.39.89-13.57-5.79-.39Z" fill="#F9B4A6"/><path opacity=".5" d="m150.7 82.1-.2 3c-.7 0-1.4-.2-2.2-.1-1.5.3-2.6.2-3.7 0l.2-3.2c1.1-.1 2.4 0 3.7 0 .8.1 1.6.2 2.2.3Z" fill="#2B1011"/><path d="m150.4 87.2-.3 4.6-5.8-.4.3-4.6c1.7 1.4 3.7.7 5.8.4Z" fill="#fff"/><path d="m127.82 76.75-2.58 13.35 5.7 1.1 2.57-13.36-5.69-1.1Z" fill="#F9B4A6"/><path opacity=".5" d="m132.8 81.6-.6 3-2.1-.3c-1.3-.3-2.5-.6-3.6-.9l.5-2.7c1.1.1 2.3.3 3.7.5.7.1 1.4.2 2.1.4Z" fill="#2B1011"/><path d="m132.1 85.5-1.1 5.7-5.7-1.1 1.1-5.6c1.5 1.4 3.6 1.8 5.7 1Z" fill="#fff"/><path d="M152.6 20.1s-3.8 1.7-7.5 15.7c-3.7 13.9-3.5 14.6-3.5 14.6s8.2-.6 8.3-1.8c.1-1.3 1.6-5.1 1.6-6 .1-.9 1.1-22.5 1.1-22.5Z" fill="#E4002B"/><path d="m141.2 59 5 .2 13.1-10.5s-10-3.8-12.9-1.5c0 0-12 .9-13.2 2.3-1.2 1.4-7.9 13.3-6.7 32.4 0 0 2.7 1.6 6.4 1.3 0 0 7.4-15.6 8.3-24.2Z" fill="#1E5491"/><path d="M161 59.2c3.7-2.2 3.7-11.8 3.7-11.8s-1.2 3.4-11.5 1.6c-10.3-1.8-9.3 3.1-9.6 8v3.6c0 7.7.5 22.2.5 22.2 2.1.8 7.3 1 7.3 1l3.7-23.8c.1-.1 3.8.5 5.9-.8Z" fill="#1E5491"/><path d="M143.6 54.7c-.1 2.8-.1 11.3 0 14.1h.2c-.1-2.9-.1-11.4 0-14.1.1-2.7.7-3.8.7-3.8h-.1.1l-.2-.1s-.6 1.1-.7 3.9Z" fill="#202759"/><path d="m141.1 59.1 2.5.1V59l-2.5-.1c-.2-.2-1.5-1.2-2.3-2.3l-.2.1c1.1 1.2 2.5 2.3 2.5 2.4Z" fill="#202759"/><path d="M139.7 66.1c1.1-3.3 1.6-7.1 1.6-7.1v-.1h-.1l-1.4-.2v.2c.5.1 1.1.2 1.3.2-.1.6-.6 4-1.6 7h.2Z" fill="#202759"/><path d="M170.3 23.2s-2-3.1-4.8-3.9c-1.7-.5-5.4 2.4-7.2 1-2.7-2.1-4.3-1.8-5.4-.6-1.1 1.2-2.5 5.4-3.2 7.8-.6 2.4-3.8 19.6-3.8 19.6s11.6 5 18.4 3.4c6.7-1.6 4.7-17.3 4.7-17.3l1.3-10Z" fill="#E4002B"/><path d="M170.3 23.2s-3.7-2.7-5.7 1c-.6 1.2-.9 2.4-1 3.4v.1c.2 1.7.5 3.4 1 5.1.8 2.7 2.1 6 2 6.9-.1 1.3-2.3 10.1-2.3 10.1 2.3 2 4.1 1.5 4.1 1.5s4.3-6.2 4.6-10.1c.3-3.7-.9-15.2-2.7-18Z" fill="#E4002B"/><path d="M152.2 20.5s-2 3.5-3.2 10c-1.2 6-1.9 10-1.9 10h.2s.8-4.1 1.9-10c1.3-6.5 3.2-9.9 3.2-10a2.9 2.9 0 0 1 2.3-1.6v-.2c-.1.1-1.7.2-2.5 1.8ZM166 36.7c-1.8-4.8-2.3-9-2.3-9h-.2s.5 4.3 2.3 9.1c.2.7.7 2.4.7 2.7 0 .3-1.8 9-2.3 10.4l.2.1c.4-1.3 2.3-10.1 2.3-10.5 0-.4-.7-2.7-.7-2.8Z" fill="#A50027"/><path d="M131.3 83.3h.1c.7-.9 2.3-3.7 3.4-7.4 0 0 0-.1-.1-.1 0 0-.1 0-.1.1-1.1 3.7-2.6 6.5-3.4 7.4.1-.1.1 0 .1 0Z" fill="#202759"/><path d="M126.2 82.5c2.1 1 4.4 1.2 6.7 1.6.4.1.8-.3.9-.8.1-.5-.1-.8-.5-.8-2.3.1-4.5-.7-6.7-1.3-.4-.1-.7.1-.8.4-.2.3 0 .7.4.9Z" fill="#2B67A6"/><path d="M150 84s.1-.1 0 0c.7-.9.7-2.3.7-3.3 0-.4 0-.7.1-.8v-.1h-.1c-.2.1-.2.4-.2.9 0 .9 0 2.3-.5 3.3-.1-.1-.1-.1 0 0Z" fill="#202759"/><path d="M144.2 83.9c2.2.7 4.5.6 6.8.7.4 0 .7-.4.8-.9 0-.5-.2-.8-.6-.7-2.3.4-4.6-.1-6.8-.4-.4 0-.7.2-.7.5-.2.3.1.6.5.8Z" fill="#2B67A6"/><path d="m129.8 90.4-6.5-2.3-2.1-2.2c-.4-1 .8-1.8 2.2-1.5l1.7.3c1.7.3 3.2 1.3 3.6 2.5l1.1 3.2Z" fill="#231F20"/><path d="M131.6 95.4 115 92.5v-.1c.7-1.4 1.4-1.6 3.1-1.8 2.2-.4 4.6-1.3 5.2-2.5 0 0 5.5 1.4 9 0 0 .1-.3 5-.7 7.3Z" fill="#414042"/><path d="m131.2 97.9-16.7-3 .5-2.4 16.7 2.9c-.3 1.4-.5 2.5-.5 2.5Z" fill="#A7A9AC"/><path d="M123.3 90.7c-.1 0-1.1-.5-2.7-.5-.1 0-.2-.1-.2-.2s.1-.2.2-.2c1.7.1 2.8.5 2.8.5.1 0 .1.1.1.2 0 .2-.1.2-.2.2ZM121.7 91.1s-.1 0 0 0c-.1 0-1.1-.5-2.7-.5-.1 0-.2-.1-.2-.2s.1-.2.2-.2c1.7.1 2.8.5 2.8.5.1 0 .1.1.1.2-.1.2-.2.3-.2.2ZM120 91.6c-.1 0-1.1-.5-2.7-.5-.1 0-.2-.1-.2-.2s.1-.2.2-.2c1.7.1 2.8.5 2.8.5.1 0 .1.1.1.2-.1.2-.1.2-.2.2ZM124.6 90c-.1 0-1.1-.5-2.8-.5-.1 0-.2-.1-.2-.2s.1-.2.2-.2c1.7.1 2.8.5 2.8.5.1 0 .1.1.1.2 0 .2 0 .2-.1.2Z" fill="#fff"/><path d="M132.3 88.7s0 1.8-.1 2.5c-.1.8-.2 1.4-.2 1.4s-1 .6-2.3 1c-1.4.4-8.7-.4-8.7-.4l.1-.3c.1-.2.3-.2.5-.2.4 0 1.4.2 2.3.2.8 0 2.6.2 3.5-.1.8-.3 2.3-2 3-2.5.4-.3-1.8 3-.1 1.8.7-.5 2-3.4 2-3.4Z" fill="#97FC35"/><path d="m148.2 91.7-5.9-.9-2.3-1.9c-.5-.9.2-1.3 1.5-1.4l1.6-.1c1.6-.1 3 .5 3.6 1.5l1.5 2.8Z" fill="#231F20"/><path d="m131.6 96.8 19.9-1c-.1-2-.5-5.3-1-6.7 0 0-1.2 2-8.1 1.7 0 0-1.3 1.9-4.3 2.6l-4.9 1.6c-.8.3-1.4 1-1.6 1.8Z" fill="#414042"/><path d="m131.6 99.2 20-1s0-1-.1-2.3l-19.9 1v2.3Z" fill="#A7A9AC"/><path d="M142 93.4c.1 0 .1 0 .1-.1s0-.2-.1-.2c0 0-1-.4-2.5-.5-.1 0-.1.1-.1.1 0 .1.1.1.1.1 1.5.2 2.4.6 2.5.6-.1 0 0 0 0 0ZM143.4 92.5c.1 0 .1 0 .1-.1s0-.2-.1-.2c0 0-1-.4-2.5-.5-.1 0-.1.1-.1.1 0 .1.1.1.1.1 1.5.2 2.4.6 2.5.6-.1 0-.1 0 0 0Z" fill="#fff"/><path d="M150.5 89.3s.5 1.6.6 2.3c0 .7.1 1.4.1 1.4s-1.6.8-3.8 1.4c-2.4.7-15.4 1.5-15.4 1.5l.2-.3c.1-.2.5-.3.7-.3.6-.1 2.5-.2 4-.3 1.4-.2 4.7-.3 6.1-.9 1.3-.4 3.5-2.3 4.6-2.9.6-.4-2.3 3.1.3 1.7 1.2-.6 2.6-3.6 2.6-3.6Z" fill="#97FC35"/><path d="M164.7 46.1c.4-.4 1-.5 1.5-.2.8.4 1.8.9 2.2 1.3.5.6.9 1.1 1.2 1.6.2.4.1.9-.3 1.1-2.5 1.5-3.8 2.2-4.7 2.9-.4.3-1.3 1-1.5 1.3-.9 1-1.6 2-2.9 3.3-.3.3-.7.6-1.1.6-.6-.1-.6-.5-.9-.5-.3.1-.8-.2-1-.4-.2-.2 0-.4-.3-.4-.4 0-.9-.5-1-1-.1-.3-.4-.2-.7-.4-.4-.4-.1-.7 0-.9.1-.3.6-.8 1-1.2.7-.8 1.2-1.3 1.2-1.3l-1-1.3s.9-.7 1.2-.9c.2-.1 1.1-.5 2.4-.6.8 0 2.1-.7 2.6-1.2.8-.6 1.6-1.3 2.1-1.8Z" fill="#F9B4A6"/><path d="m156.9 56.8.5-.8.7-.6M158.8 56.6l-.6.9" stroke="#EA826A" stroke-width=".5" stroke-miterlimit="10"/><path d="M157.3 17.3s-1.8-.1-2.5.2c-.7.3-.9.9-.7 1.2 0 0 .2.1.4.1l2.7-.1.1-1.4Z" fill="#E4002B"/><path d="M165.5 17.7c-.8-.4-2.1-.3-2.1-.3l1 1.7-.7.2s-.9.7-1.7.9c-.8.2-2.8.1-3.7-.2-.9-.3-1.1-1.4-1.1-1.4s-.5-.1-1.2-.1h-1.6l.1.2s1.5 1.4 2.1 2.3c.6.9 4.3.9 5.6.8 1.4 0 2.5-2 2.5-2s1.9 0 2 .1c.2.2 1.9 1.2 1.9.4-.1-1.7-2.3-2.2-3.1-2.6Z" fill="#E4002B"/><path d="M157.5 63.1c-.3 3 6.8 1.9 13.5 1.2 12.7-1.3 16.2-5 8.3-10.3-5.5-3.7-5.3-2.1-17.5-1-10.3 1-4 7.5-4.3 10.1Z" fill="#EA826A"/><path d="M145.5 64.9c.8 6.2 21.2.3 28.6-.7 14-1.7 14.6-3.3 12.2-12.5-2-7.6-9.6-3.3-22 1.4-13.1 5-19.4 7.4-18.8 11.8Z" fill="#F9B4A6"/><path d="M152.8 67.9c11 .3 21.6-3.1 31.7-7.2 2.9-1.2 5.7-2.4 8.5-3.6.6-.3.1-1.1-.5-.9-9.9 4.2-20 8.5-30.7 10.1-3 .4-6 .6-9.1.5-.5.1-.5 1.1.1 1.1Z" fill="#F3A08E"/><path d="M0 121.2a18.2 18.2 0 1 0 36.4 0 18.2 18.2 0 0 0-36.4 0Z" fill="#323334"/><path d="M33.1 119.8s1 2 1.5 4.6c.2 1.3.2 1.8-.8 3.3-2 2.7-2.7 3.4-3.4 3.3-.7-.1-3.8-.8-4.7-1-.7-.2-.7-.3-1-1.5-.3-1.2-.7-2.9-.8-3.8-.1-.9 0-.9.8-1.9.8-1 2.7-3.6 3.1-4 .4-.5.6-.3 1.5-.2.9.1 2.3.5 2.9.7.7.1.7.3.9.5ZM31.9 110s.8 1.1 1.5 2.3c.4.7.3 1.8 0 3.8-.2 2-.4 2-1.2 1.9-.8-.2-2.9-.6-3.5-.7-.6-.1-1-1.1-1.5-2-.5-.9-2.6-3.6-3-4-.4-.4-.3-.7-.2-1.7.1-.9.4-2.9.7-3 .3-.1 2.3-.1 3-.1.7.1 2.6 1.6 4.2 3.5ZM23.1 124.7s.8 3.3 1.1 4.6c.1.7.2.9-1.4 1.9-1.5 1-2.3 1.6-2.8 1.9-.5.3-.9.3-2.4-.1-1.4-.3-2.8-.6-3.4-.9-.6-.3-1.5-2.2-1.9-3.6-.4-1.3-.7-2.4-.2-2.9.6-.5 1.3-1.2 2.2-1.8.9-.6 1.7-1.5 2.1-1.3.4.2 4 1.1 5.5 1.5.7.3 1.1.5 1.2.7ZM20.4 138.2s-.7-2.6-.8-3.3c-.1-.6-.4-.7-1.3-.8-.9-.1-3.4-.8-3.8-.9-.4-.1-.7-.2-1.4.4-.7.6-2.3 1.9-2.9 2.3-.4.3 1.5 1.6 4 2.2 2.8.6 6.2.5 6.2.1ZM22.8 110.3s.4-2.1.5-3.3c.1-1.2 0-1-1.5-1.7s-5.2-1.5-6-1.6c-.8-.1-1.7.2-3.7 1.2s-2.5 1.3-2.6 1.9c-.1.6-.3 3.3-.4 4.5 0 .9.3.8 1.8 1.4 1.5.6 2.9 1.2 3.3 1.4.5.2 1.3-.3 2.6-1.1 1.2-.7 3.6-1.7 4.6-2 1.1-.3 1.3-.1 1.4-.7ZM14.1 115.6s.7 3.1 1 4.8c.3 1.5.2 1.8-.7 2.5-.9.7-2 1.7-2.6 2.1-.6.4-.9.9-2.7.4-2.3-.6-2.9-.8-3.5-1-.7-.2-.8-.5-1.1-1.8-.3-1.3-.5-3.2-.6-4.2-.1-1 .1-1.2.9-2s2.4-2.2 3-2.8c.6-.6 1-.7 1.8-.4.7.3 2.7 1 3.4 1.4.8.3 1 .4 1.1 1ZM1.8 117.1s1 .3 1.3.5c.3.1.3 1.2.4 2.2.1 1 .5 3 .7 3.9.1.4-.4.8-.9 1.6-.8 1.2-1.2 1.9-1.3 1.7-.2-.2-1.3-2.6-1.2-6.6.1-1.8.4-3.6 1-3.3ZM35.1 126.9s-.2-.5-.3-.2a25 25 0 0 1-3 4.2c-.5.4-.6.6-.6 1.4-.1.8 0 1 .5.5.4-.4 2.7-3.3 3.4-5.9Z" fill="#fff"/></svg>