<svg width="195" height="81" viewBox="0 0 195 81" fill="none" xmlns="http://www.w3.org/2000/svg"><path opacity=".7" d="M11 79.6s0 2-2.4.9C6.3 79.4-.8 68.7.1 66.3c0 0 0-1.6 2.4-.5l2-1.1s-.3-1.1.6-1.3c.9-.2 1.6.5 1.6.5l2.7-2s5.6-12.6 6.8-13.8c1.2-1.2 2.9-2 4.9-2.2 2-.2 6.5-.3 6.5-.3s2.3.3 3.1 1.1c.8.8 1.1.9 1.1.9l5 1.3s.4.2.5-.5c.1-.6.7-2.3 1.3-2.5.6-.3 3.2-.6 3.2-.6s1.5 0 2.1 1.1c.6 1.1 2 3 2 3s.4-3.7 1.2-4c.8-.3 2.6.3 3.3-.7.7-1 1.7-5.3 3.7-7.6s5.4-4.7 7.2-4.9c1.8-.2 4 1 4 1s7.3 7.1 8.9 13.3c1.5 6.2 2.6 15.2 1.1 16.2-1.4 1-2.1 3.2-7.3 3.7-5.2.5-4.2 0-4.9-.2-.7-.1-7.5-3.9-7.8-4-.3-.1-.5 1.4-1.3 1.3l-.8-.1s.2.8-.6.5c-.8-.3-3-1.3-3.9-.7-.9.6-3.6 5.6-3.8 5.9-.3.2-4.2-.5-4.2-.5s-2.5 7.7-3.6 8.1c-1.1.4-7.6.9-8.1 1.4-.5.5-.4 1.7-1.7 1.4-1.3-.3-10-3.8-10-3.8l-2 .9c.2 0 .1 1.3-.8 1.7-.9.4-1.4-.1-1.4-.1L11 79.6Z" fill="#92C9CA"/><g opacity=".4"><path d="M6.7 72.5c-2.5-3.8-5.2-6.4-6-5.9-.8.5.5 4.1 3 7.9 2.5 3.8 5.2 6.4 6 5.9.9-.6-.5-4.1-3-7.9Z" fill="#909797"/><path d="M11 79s-1.5-7.1-8.2-13c-.1 0 7.1 5.1 8.2 13ZM13.2 77.8s.7-2.4-2.6-7.2c-3.3-4.8-6.2-5.9-6.2-5.9S9 66.3 11.9 72c0-.1 2.5 4.2 1.3 5.8Z" fill="#C1C9CA"/><path d="M15.2 76.8s.7-2.4-2.5-7C9.4 65.1 6.6 64 6.6 64s4.5 1.6 7.3 7.1c0 0 2.5 4.2 1.3 5.7ZM17.5 75.2s.8-2.3-2.2-7.1-5.8-6-5.8-6 4.4 1.8 7 7.4c-.1-.1 2.2 4.2 1 5.7ZM28.4 74.7s2.2-14-9.5-25.8c.1 0 12.4 9.9 9.5 25.8ZM40.7 68.5s.4-3.7-.4-5.6C39.5 61 31.8 48 31.8 48s8 12.2 8.9 13.9c.8 1.8 0 6.6 0 6.6ZM53.3 63.4S36.9 49.1 36.7 48.9c-.1-.1 11.2 7.8 16.6 14.5ZM50.1 53.2s-1.8 1.3-4.3-3.4l-.2-.7 2.8 3s1.3.4 1.5.3c.2-.1 1.3-1 1.3-1s.2 1.6-1.1 1.8ZM55.3 62.2s.6-2.4.2-3.4c-.4-1-1.8-4.4-2-6.6 0 0 .7-4.8 1.2-7.4 0 0-.9 6.8-.2 9.1s1.7 5.1 1.7 5.1l-.9 3.2ZM72.8 62.7s.4-3.2-1.2-5.9-6.4-4.7-6.8-9c-.4-4.2 1.4-7.1-2-11 0 0 3.2 1.8 3 5.9-.2 4.2-.9 5.7 1.1 8.3 2 2.6 4.9 3.6 5.6 6.9.8 3.4.3 4.8.3 4.8ZM71.8 63.8s-1.4 1.3-6.2-4.7c-4.8-6-6.4-15.3-6.3-15.7-.1 0 3.7 15.6 12.5 20.4Z" fill="#C1C9CA"/></g><g opacity=".7" fill="#fff"><path opacity=".8" d="M27.1 75.4c-1-.2-2-.3-3-.6-1.6-.4-3.1-1-4.7-1.5-.2-.7-.4-1.5-.5-2.2 2.4.3 4.9.6 7.2 1.2.1 0 .1.1.1.1l.9 3ZM30.2 72v-.6c2.1-.5 4.3-.6 6.4-.8 0 1.4 0 2.8-.3 4.2-2-.1-4.1-.3-6.1-.2l-.1-.1c0-.8 0-1.6.1-2.5ZM46 62.8c-.3 1.5-.6 3-1.3 4.3-.8-.2-1.6-.4-2.4-.5v-.2c.1-1 .4-1.9.5-2.9v-.6c1 .2 2.1.1 3.2-.1ZM49.8 56.4c.4.2.8.3 1.2.4.1 0 .1.1.2.1.5.2.7.4.8.9.2 1 .6 2.1.7 3.2v.1c-.9-.9-1.9-1.7-2.8-2.6-.1-.2-.3-.4-.4-.5-.4-.3-.7-.6-1.1-.9-.2-.1-.3-.3-.5-.4-.6-.6-1.3-1.2-1.9-1.8v-.2c1.3.7 2.5 1.3 3.8 1.7ZM64.9 63.8c-1-.4-2-.9-3-1.3-1.3-.6-2.6-1.2-3.9-1.9 0-.2.1-.5.2-.8.8-1.4-.8-1.6-1.5-2.5.3-1.5.4-3 .7-4.4 1.5 1.2 3 2.4 4.6 3.5.8 1.3 1.6 2.6 2.6 3.8 1 1.3 2.2 2.4 3.3 3.6-1-.1-2 0-3 0ZM69.4 60.4c-1.2-.6-2.3-1.8-3.1-2.7-.3-.4-.5-.7-.7-1.1-.3-.4-.6-.7-.8-1.2-1-1.8-1.9-3.7-2.8-5.5v-.2c.6.4 1.2.8 1.8 1.3.4.6.8 1.2 1.3 1.7.8 1 1.9 1.8 2.6 2.9.2.2.3.5.5.7.4 1.3.9 2.7 1.2 4.1ZM71.7 50.1c.2.3.5.6.7.9.4.5.4 1.3.4 1.9.1 1 .3 2 .5 3 0 .2-.1.3-.2.3-.9-1.3-1.9-2.6-3.1-3.6-.8-.7-1.6-1.4-2.3-2.1.1-1 .4-2 .7-3 1 1 2.1 1.8 3.3 2.6ZM12.6 75.7c.1.4.1 1-.4 1s-.8-.3-.9-.7c-.1-.3-.4-1-.3-1.4 0-.2 0-.3.1-.4.3-.3.7 0 1 .2.3.4.4.8.5 1.3ZM14.7 74.5c.1.4.2.9-.3.8-.4 0-.7-.4-.8-.7-.1-.3-.1-.8.2-1 .1-.1.4-.1.5 0 .2.2.5.6.4.9ZM15.9 70.7c.2.3.3.7.4 1 .2.7.2 1.3.2 1.9.1.2 0 .4 0 .6-.1.4-.9.2-.9-.2 0-.8 0-1.5-.3-2.2-.3-.9-.8-1.8-1.1-2.7.7.5 1.2 1 1.7 1.6Z"/><path opacity=".5" d="M10 77.1c0 .1-.1 0-.1 0-.1-.4-.4-.8-.5-1.2 0-.1.2-.1.2 0 .2.3.4.7.4 1.2Z"/></g><path d="M149.4 8.2 87.7 0s-32 13.7-32.5 14.4c-.4.7-23.7 1.2-23.9 1.8-.2.6-.7 1.5-.1 2.2.6.7 14.7 2.9 14.7 2.9s-17.1 8.9-16.8 10.9c.3 2 3.1 3.2 3.9 3.1.7-.1 18.1-9.4 18.1-9.4s-.9 19-.4 17.1c1.1-4.4 4.9-6.5 5.7-8 .5-1 3.8-10.6 5.7-10.5 1.8.1 8.4 2.2 8.6 3.6.2 1.4-10.1 20-11.2 22.1-.7 1.5 1.3 6.4 5.1 2.4 1.8-1.9 14.9-20.8 15.6-21.3.7-.5 2.5-4.7 2.8-5.8.2-1.1 2.3-3.9 3.8-4.9 1.6-1 5.3-1.6 8.7-.5 3.4 1.1 50.2 15.3 50.2 15.3l3.7-27.2Z" fill="#F9B4A6"/><path d="M117.8 2.9s4.2 4.8 2.9 9.2c-2.2 7.5-9.2 13.9-9.2 13.9s6.9 4.4 10.8 7.2c2.3 1.6 14.3 6.6 28.5 11.2 12.3 3.9 50.6 22.8 50.6 22.8l19.9-43.8s-49-15-60.4-17.1c-11.4-2.1-24-5.1-29.6-4.6l-13.5 1.2Z" fill="#E4002B"/></svg>