<svg width="220" height="313" viewBox="0 0 220 313" fill="none" xmlns="http://www.w3.org/2000/svg"><path d="M165.84 208.74c-.34-.12-7.42-3.26-13.64-4.05-7.08-.86-12.7 2.12-15.69 1.8-1.16-.1-1.64-1.1-1.82-1.37-.9-2.14 1.2-4.68 4.06-10.54 2.68-5.4 2.76-8.12 2.68-8.82-.17-2.13-.4-3.73-1.91-5.08-1.8-1.68-5.65-4.36-6.2-4.84a85.27 85.27 0 0 0-6.75-5c-1.4-.96-5.5-1.91-8.33-1.66-4.62.54-7.46 3.8-7.94 4.35-1.18 1.36-1.73 2.75-1.99 3.34-2.71 6.76-5.8 18.59-6.45 21.15a7.22 7.22 0 0 0-1.39 3.28c-.47 3.97 3.41 7.16 7.59 10.68 2.52 2 11.21 9.17 14.67 6.67.53-.35.81-.84 1-1.3 3.12-1.07 8-2.92 14-5.28 3.37-1.34 4.18-1.77 5.5-2.24 3.9-1.27 9.88-2.18 18.37.07 1.12.31 2.27.72 3.3 1.06.66-.6 1.29-2.11.94-2.22Zm-29.3-19.26c-1.2.95-2.73.64-3.84.01-2.09-1.19-3.58-2.86-7.68-5.36-3.13-1.95-4.4-2.43-6.16-2.05-3.82.83-7.39 6.37-8.45 6.66-.38.1-1.78.28-1.68-.47.25-1.73 2.03-6.99 4.04-11.78.5-1.18 2.6-3 5.67-3.53a8.33 8.33 0 0 1 5 .5c1.8.86 7.14 4.48 11.99 8.55 1.2 1.02 2.28 2.28 2.34 4.02-.2.06.22 2.33-1.24 3.45Z" fill="#1137C1"/><path d="M131.82 192.37c.44-.7-1.9-3.01-5.25-5.16-3.34-2.15-6.42-3.33-6.86-2.63-.45.7 1.9 3 5.24 5.15 3.34 2.15 6.42 3.33 6.87 2.64Z" fill="#F2F2F2"/><path d="M82.4 165.5s4.7.9 7.9 1.99c3.2 1.1 6.23.78 6.23.78s26.65 8.38 28.3 8.34c1.65-.04 4.55-.41 2.44-3.57-2.1-3.16-25.77-10.48-26.34-11.05-.57-.57.12-4.49 2.45-6.58s6.33.76 8.34 2.8c3.42 3.42 5.44 7.02 8.61 10.3 1.47 1.57 4.34 1.1 8.05 4.02 2.79 2.25 4.47 8.42 8.47 5.98 1.34-.78-10.52-24.08-13.44-26.8-2.92-2.73-18.12-12.47-20.72-11.35-2.6 1.13-22.1 2.2-24.8 1.08-9.62-4.11-44.57-39.86-44.57-39.86l-5.86 10.82s26.73 36.76 40.5 43.88c9.65 6.49 14.44 9.22 14.44 9.22Z" fill="#F9B4A6"/><path d="M104.6 155.29c3.69-.9 7.6-1.77 10.92.54a17.45 17.45 0 0 1 3.87 3.92c1.4 1.69 2.72 3.5 3.95 5.35a83.4 83.4 0 0 1 4 6.27c.34.52 1.16.1.88-.56a101.39 101.39 0 0 0-7.8-11.45c-1.24-1.52-2.51-3.15-4.07-4.28a9.02 9.02 0 0 0-5.25-1.78c-2.3-.09-4.55.42-6.67 1-.78.21-.51 1.17.16.99Z" fill="#F3A08E"/><path d="M77.01 139.7s-6.37.6-8.94 4.84c-2.58 4.22-2.66 12.65-2.66 12.65s-10.77-4.11-13.53-5.12c-2.89-1.08-18.21-8.6-29.76-19.76-9.98-9.6-28.09-27.67-28.09-27.67V41.67s51.29 51.86 59.14 61.63c7.86 9.78 17.04 20.23 19.39 25.8L77 139.7Z" fill="#E4002B"/><path d="M210.98 244.92a59.06 59.06 0 0 1 4.47 7.28M197.58 225.88a57.04 57.04 0 0 1 9.73 13.2M183.8 215.65a51.12 51.12 0 0 1 5.6 3.44M169.71 210.38c1.54.3 3 .73 4.47 1.16M182.48 222.96a34.05 34.05 0 0 1 4.42 5.94M168.28 213.46c2.76 1.01 5.4 2.36 7.85 4.08M186.4 252.88c.54 2.34.81 4.86.94 7.2M182.29 239.7c.94 3.06 1.97 6.1 2.7 9.1M169.31 217.64a81.06 81.06 0 0 1 9.2 12.41M188.4 267.78c.54 2.34.81 4.86.94 7.2M199.76 258.87c.44 1.23.75 2.39 1.2 3.61M194.25 244.41c1.23 2.98 2.3 6.11 3.23 9.17M190.24 233.9a97.75 97.75 0 0 1 1.9 5.07M205 250.39a46.03 46.03 0 0 1 2.18 6.04M197.6 234.68a61.62 61.62 0 0 1 5.08 10.23M191.11 226.1a39.54 39.54 0 0 1 3.27 3.97M193.57 261.29c.64 2.31 1.3 4.72 1.83 7.06M190.65 250.58l.97 3.57M188.7 243.44c.4 1.45.89 2.87 1.19 4.34M183.13 230.66c.95 1.19 2.8 4.93 3.15 6.6" stroke="#4EB9F4" stroke-miterlimit="10"/></svg>