<svg width="236" height="252" viewBox="0 0 236 252" fill="none" xmlns="http://www.w3.org/2000/svg"><path d="M117.53 135.59s-3 6.12-8 9.5c-2.97 2-10.1 7.5-10.1 7.5s-14.27 14.1-15.9 13.53c-1.54-.53-2.46-5.4.53-7.85 3.12-2.49 11.92-14.4 12.75-14.86.77-.36 1.13-5.67-.6-8.49-1.66-2.77-6.15-2.55-8.72-1.24-4.5 2.28-7.27 5.54-11.03 8.35-5.12 3.78-5.55-1.98-10.02.66-3.28 1.94-7.16 6.99-10.33 3.25-1.06-1.18 15.22-18.63 21.72-22.42 5.12-2.97 13.2-6.68 18.9-7.02 11.04-.66 17.35.38 31.95-6.77 22.22-10.88 51.56-26.25 51.56-26.25l-18.04 8.77s23.71 27.16 18.71 22.39c-4.95-4.86-63.38 20.95-63.38 20.95Z" fill="#F9B4A6"/><path d="M95.34 134.2c-1.6-1.02-3.2-2.26-4.85-3.2a7.39 7.39 0 0 0-5.55-.94c-2 .48-3.75 1.55-5.42 2.68-1.9 1.34-3.8 2.67-5.62 4.06a93.98 93.98 0 0 0-6.08 5.07c-.47.42-1.2-.33-.72-.76 3.7-3.3 7.48-6.34 11.56-9.09 1.72-1.2 3.52-2.37 5.57-2.94a7.78 7.78 0 0 1 5.67.33c2.18 1 3.94 2.57 5.98 3.84.48.38-.02 1.25-.54.96Z" fill="#F3A08E"/><path d="M127.28 134.78s1.94-7.3-1.82-11.82c-3.76-4.53-8.77-10.7-8.77-10.7s4.58-7.51 6.82-10.27c2.42-2.65 16.74-16.62 33.64-25 14.64-7.23 41.66-20.11 41.66-20.11l28.84 35.57s-36.87 25.46-50.73 30.27c-13.85 4.81-28.98 10.86-36.07 11.22l-13.56.84Z" fill="#E4002B"/><path d="M44.84 168.74a3.83 3.83 0 0 0 2.86-4.24 3.93 3.93 0 0 0-4.67-3.33l-22 4.8c-2.22.48-1.86 3.9.48 3.84l22.52-.84.81-.23Zm-23.79-2.4s22.1-4.76 22.14-4.84c2-.49 4.03 1 4.2 2.94.26 1.98-1.32 3.96-3.38 3.95l-22.52.84c-1.8.13-2.16-2.48-.44-2.9Z" fill="#000"/><path d="M73.45 168.93c18.54-5.39 11.11-33.12-7.62-28.42-18.54 5.39-11.11 33.12 7.62 28.42Zm-7.13-26.65c16.33-4.1 22.86 20.14 6.68 24.79-16.32 4.1-22.9-20.05-6.68-24.79Z" fill="#1C75BC"/><path d="M73.76 169.8c19.72-5.64 11.8-35.15-8.16-30.1-19.71 5.63-11.74 35.05 8.16 30.1Zm-7.63-28.2c17.37-4.32 24.28 21.28 7.1 26.29-17.37 4.32-24.22-21.37-7.1-26.29Z" fill="#000"/><path d="M70.66 158.4c4.82-1.42 2.9-8.59-1.96-7.3-4.77 1.32-2.84 8.49 1.96 7.3Z" fill="#000"/><path d="M25.24 181.9c18.54-5.37 11.11-33.1-7.62-28.4-18.62 5.33-11.1 33.1 7.62 28.4Zm-7.17-26.55c16.32-4.1 22.85 20.14 6.68 24.79-16.33 4.1-22.86-20.14-6.68-24.79Z" fill="#1C75BC"/><path d="M25.42 182.81c19.72-5.63 11.8-35.14-8.16-30.1-19.58 5.6-11.66 35.1 8.16 30.1Zm-7.5-28.23c17.37-4.32 24.28 21.28 7.1 26.29-17.36 4.32-24.36-21.33-7.1-26.29Z" fill="#000"/><path d="M22.46 171.38c4.81-1.41 2.9-8.59-1.96-7.3-4.9 1.36-2.99 8.53 1.96 7.3Z" fill="#000"/><path d="m41.83 158.57 4.05-1.09.32 1.16-4.06 1.1-.31-1.17Z" fill="#F7941D"/><path d="M43.97 158.49c-.22-.01-.32.16-.42.34l-.3 6.03c-.01.22.16.32.34.42.22 0 .37-.25.41-.34-.03-.14.3-6.03.3-6.03.02-.22-.1-.4-.33-.42Z" fill="#000"/><path d="m20.64 167.48 6.38-19.24-2.87-4.27c-.25-.37-.18-.9.28-1.1.37-.25.9-.18 1.1.28.67 1.06 2.04 3.1 2.75 4.07l26.29-7.1a113.82 113.82 0 0 1-4.38-6.48c-.16-.32-.19-.68.05-.9l2.15-2.8c.67-.77 1.96.19 1.3.96l-1.78 2.33a81.69 81.69 0 0 0 18.35 20.8c.3.29.36.78.16 1.13-1.56 1.76-12.9-11.3-14.3-13.12l-10.56 21.37c2.1 2.56-1.93 5.45-3.67 2.63l-20.23 2.48c-.72.05-1.23-.47-1.02-1.04Zm8.6-18.91a77 77 0 0 0 13.34 14.42c.37-.25.92-.4 1.4-.25l10.4-20.88-25.14 6.71Zm-.42 17.44 12.7-1.55.1-.18a79.9 79.9 0 0 1-13.38-14.33l-3.64 10.93c-.94 2.68 1.29 5.43 4.22 5.13Z" fill="#E4002B"/><path d="M51.9 130.81c.38 1.37 2.42.8 2.04-.57-.38-1.36-2.37-.88-2.04.57Z" fill="#000"/><path d="M52.3 130.7c.24.82 1.55.52 1.37-.38-.31-.87-1.63-.57-1.36.38Z" fill="#58595B"/><path d="M22.4 142.99c1.4 3.43 10.43-1.58 10.45-2.84-.03-1.16-10.97 1.74-10.44 2.84Z" fill="#000"/><path d="M44.82 169.19c5.5-1.6 3.22-9.78-2.26-8.4-5.5 1.6-3.23 9.78 2.26 8.4Zm-1.95-7.53c4.4-1.08 6.13 5.41 1.77 6.63-4.4 1.07-6.13-5.42-1.77-6.63Z" fill="#939598"/><path d="M42.42 165.3c.5 1.78 3.08 1.06 2.67-.66-.49-1.77-3.08-1.05-2.67.67Z" fill="#000"/><path d="M43.7 164.66c-.22-.01-.32.16-.41.33l-.3 6.03c-.02.23.16.32.33.42.22.01.37-.25.42-.33-.04-.14.3-6.03.3-6.03.01-.23-.11-.41-.33-.42Z" fill="#000"/><path d="m41.26 170.97 4.06-1.09.3 1.16-4.05 1.1-.3-1.17Z" fill="#F7941D"/><path d="M90.52 155.37c2.38 3.3-2.66 6.53-5.13 8.47-2.47 1.94-2.13 3.16-3.65-.45-.8-1.83.31-4.42 3-6.12 2.68-1.7 3.55-4.88 5.78-1.9Z" fill="#F9B4A6"/></svg>