<svg width="46" height="60" viewBox="0 0 46 60" fill="none" xmlns="http://www.w3.org/2000/svg"><path d="m40.52 30.63 4.32-2.44c.37-.19.5-.75.25-1.12l-2.94-4a.75.75 0 0 1 0-.88l2.88-4.07c.25-.37.12-.87-.25-1.06l-4.38-2.31c-.32-.13-.44-.44-.38-.82l.81-4.88c.07-.43-.24-.87-.68-.87l-4.94-.19a.73.73 0 0 1-.7-.56l-1.37-4.76c-.12-.43-.62-.68-1-.5l-4.56 1.94a.77.77 0 0 1-.88-.19L23.38.23a.8.8 0 0 0-1.12 0L19 4c-.2.25-.57.31-.88.19L13.57 2.3c-.44-.19-.88.06-1 .5l-1.32 4.82c-.06.3-.37.5-.69.56l-4.94.31c-.44 0-.75.44-.69.88l.88 4.88a.75.75 0 0 1-.38.8l-4.37 2.32c-.38.19-.5.75-.25 1.13l2.93 4c.2.25.2.63 0 .88L.87 27.44c-.25.38-.13.88.25 1.06l4.38 2.32c.3.12.43.44.37.81l-.81 4.88c-.06.44.25.88.69.88l4.94.18c.3 0 .62.25.68.57l1.38 4.75c.13.44.63.69 1 .5l4.57-1.94a.77.77 0 0 1 .87.19l3.32 3.69a.8.8 0 0 0 1.12 0l3.26-3.75c.18-.25.56-.32.87-.2l4.57 1.88c.44.2.87-.06 1-.5l1.31-4.81c.06-.31.38-.5.69-.56l4.94-.32c.44 0 .75-.44.69-.87l-.88-4.88c0-.25.13-.56.44-.69Zm-17.57 5.63A13.47 13.47 0 0 1 9.5 22.81c0-7.44 6.07-13.44 13.45-13.44 7.44 0 13.44 6.06 13.44 13.44 0 7.45-6 13.45-13.44 13.45Zm6.31 23.33-3.94-12.2c.07-.06.19-.12.25-.18l2.44-2.26 3.2.94c.37.13.74.19 1.12.19 1.06 0 2.06-.44 2.75-1.13l3.75 11.58a.55.55 0 0 1-.69.68L33.7 55.9a.5.5 0 0 0-.56.19l-2.88 3.69a.57.57 0 0 1-1-.19Zm-22.2-3.06 3.75-11.58a3.68 3.68 0 0 0 2.75 1.13c.38 0 .75-.06 1.13-.19l3.19-.94 2.44 2.26c.06.06.19.12.25.18l-3.94 12.2c-.13.44-.69.5-.94.19l-2.88-3.7a.5.5 0 0 0-.56-.18l-4.44 1.31c-.5.13-.88-.25-.75-.68ZM31.5 21.3l-3.87 3.25 1.19 4.95c.25.93-.82 1.68-1.63 1.18L22.95 28l-4.32 2.7c-.81.5-1.81-.26-1.63-1.2l1.2-4.94-3.89-3.25c-.75-.62-.3-1.81.63-1.87l5.07-.38 1.94-4.7a1.1 1.1 0 0 1 2 0l1.94 4.7 5.06.38c.94.06 1.32 1.25.56 1.87Z" fill="#fff"/></svg>