<svg width="53" height="60" viewBox="0 0 53 60" fill="none" xmlns="http://www.w3.org/2000/svg"><path d="M20.29 49.96v2.38h-.8c-.67 0-1.2.54-1.2 1.2 0 .66.53 1.2 1.2 1.2h.92a6.44 6.44 0 0 0 12.67 0h.91c.66 0 1.2-.54 1.2-1.2 0-.66-.54-1.2-1.2-1.2h-.8v-2.38H20.3ZM47.56 27.13h3.91c.66 0 1.2-.54 1.2-1.2 0-.66-.54-1.2-1.2-1.2h-3.9c-.67 0-1.2.54-1.2 1.2 0 .66.53 1.2 1.2 1.2ZM41.47 12.4c.3 0 .6-.11.85-.35l2.76-2.76a1.2 1.2 0 0 0 0-1.7 1.2 1.2 0 0 0-1.7 0l-2.77 2.77a1.2 1.2 0 0 0 0 1.69c.24.24.54.36.86.36ZM13.7 37.02a17.25 17.25 0 0 1 3.9 9.46c.07.6.59 1.08 1.2 1.08h15.9a1.2 1.2 0 0 0 1.2-1.06 20 20 0 0 1 4.28-9.97 17.13 17.13 0 1 0-26.48.5v-.01Zm7.32-9.5 6.23-10.09c.26-.41.77-.6 1.23-.45.47.15.77.6.72 1.1l-.46 5.82 3.1.85c.33.09.6.33.72.66.12.32.07.68-.12.96l-6.81 10.09a1.07 1.07 0 0 1-1.24.4 1.06 1.06 0 0 1-.7-1.1l.6-5.84-2.68-.83c-.31-.1-.57-.34-.68-.64-.12-.31-.09-.65.1-.93ZM9.26 44.62c.3 0 .61-.12.84-.35l2.76-2.76c.47-.47.47-1.24 0-1.7a1.2 1.2 0 0 0-1.7 0l-2.75 2.75a1.2 1.2 0 0 0 0 1.7c.22.24.54.36.85.36ZM26.74 6.3c.66 0 1.2-.53 1.2-1.2V1.2c0-.66-.54-1.2-1.2-1.2-.67 0-1.2.54-1.2 1.2v3.9c0 .67.53 1.2 1.2 1.2ZM2.01 27.13h3.9c.67 0 1.2-.54 1.2-1.2 0-.66-.53-1.2-1.2-1.2h-3.9a1.2 1.2 0 0 0 0 2.4ZM11.17 12.05a1.16 1.16 0 0 0 1.7 0 1.2 1.2 0 0 0-.01-1.7L10.1 7.6a1.2 1.2 0 1 0-1.7 1.69l2.77 2.76ZM42.32 39.8a1.2 1.2 0 0 0-1.7 0 1.21 1.21 0 0 0 0 1.7l2.75 2.77a1.23 1.23 0 0 0 1.7 0 1.2 1.2 0 0 0 0-1.7l-2.75-2.77Z" fill="#fff"/></svg>