<svg width="62" height="60" viewBox="0 0 62 60" fill="none" xmlns="http://www.w3.org/2000/svg"><path d="M34.54 2.82A7.78 7.78 0 0 1 37.57.05c-.25-.03-.5-.05-.73-.05H24.43a8.31 8.31 0 0 0-6.5 3.75l-6.47 11.2 12.06 6.97 11.02-19.1ZM36.15 3.75l-4.44 7.7 5.22 9.04-3.29 1.9 12.74.56 5.88-11.32-3.28 1.9-5.64-9.78a7.77 7.77 0 0 0-3-2.75 6.66 6.66 0 0 0-4.19 2.75ZM4.77 40.85A7.8 7.8 0 0 1 .86 39.6c.1.23.2.45.32.66l6.2 10.75a8.33 8.33 0 0 0 6.5 3.75h12.95V40.85H4.76ZM13.66 39l5.22-9.05 3.28 1.9-5.88-11.32-12.74.57L6.82 23l-5.64 9.77a7.76 7.76 0 0 0-.9 3.96A6.67 6.67 0 0 0 4.78 39h8.89ZM60.92 34.2 54.45 23l-12.06 6.96 11.03 19.1a7.8 7.8 0 0 1 .88 4c.16-.2.3-.4.41-.6l6.2-10.75a8.32 8.32 0 0 0 0-7.5ZM47.37 42.29H36.93v-3.8l-6.86 10.76L36.93 60v-3.8h11.29c1.25 0 2.66-.46 3.88-1.2a6.68 6.68 0 0 0-.3-5.02l-4.43-7.7Z" fill="#fff"/></svg>