<svg width="700" height="70" viewBox="0 0 700 70" fill="none" xmlns="http://www.w3.org/2000/svg">
<g clip-path="url(#clip0_621_3772)">
<path d="M-521.684 62.8519C-523.731 61.9983 -525.96 62.0486 -528 60.9207V-11H2002V61.6424C1999.5 61.6424 1997.06 66.3825 1995.3 67.9626C1993.54 69.5426 1990.4 70.6726 1988.47 69.5426C1987.43 68.9369 1985.55 68.2584 1984.41 67.9626C1982.62 67.4993 1981.13 66.0489 1979.44 65.4852C1977.3 64.772 1975.63 65.2458 1973.41 65.5047C1971.17 65.7667 1968.96 65.8363 1966.69 65.8363C1962.86 65.8363 1959.08 63.7321 1955.27 63.0469C1952.15 62.4876 1949.03 62.0426 1945.91 62.6958C1942.69 63.3686 1939.52 64.786 1936.28 65.1146C1932.67 65.481 1929.48 66.1591 1925.89 64.7635C1923.55 63.8526 1922.07 63.4021 1920.09 61.6424C1918.96 60.6351 1918.01 59.4681 1916.73 58.6384C1915.46 57.8117 1914.14 56.3355 1912.82 55.6538C1911.4 54.9164 1908.83 53.0211 1907.86 51.6159C1907 50.3556 1904.46 51.4404 1903.42 51.4404C1901.87 51.4404 1900.4 52.1426 1898.84 52.1426C1895.38 52.1426 1891.01 51.0734 1887.84 49.3336C1886.59 48.645 1885.06 48.4679 1883.8 47.8511C1882.26 47.0918 1880.8 46.1 1879.22 45.3933C1874.56 43.3005 1870.04 45.2771 1865.22 45.4713C1863.19 45.553 1860.65 45.4049 1858.8 44.4179C1856.58 43.2311 1852.89 41.8097 1850.48 41.609C1848.73 41.4624 1847.02 40.9067 1845.17 40.9067C1841.97 40.9067 1838.36 40.4491 1835.25 41.3359C1832.5 42.1189 1829.65 44.0025 1826.79 44.0668C1823.17 44.148 1820.13 43.4325 1816.63 42.3112C1813.33 41.2536 1809.9 41.4282 1806.47 41.1798C1800.55 40.7508 1794.68 39.8314 1788.76 39.5022C1783.57 41.5228 1777.23 38.4704 1771.92 39.7749C1770.65 40.0861 1769.05 39.8529 1767.77 39.8529C1765.98 39.8529 1764.22 40.2041 1762.44 40.2041C1759.96 40.2041 1757.52 41.1811 1755.08 41.589C1751.47 42.1909 1747.69 41.8244 1744.11 42.7399C1740.98 43.543 1737.75 43.8315 1734.62 44.5931C1733.01 44.986 1731.02 44.9527 1729.36 44.7491C1726.66 44.4175 1723.94 44.2932 1721.22 43.9884C1717.58 43.5793 1713.94 43.1094 1710.3 42.6619C1708.59 42.4519 1706.9 42.0596 1705.22 42.5839C1703.21 43.208 1700.06 42.8282 1697.95 42.4864C1692.3 41.5709 1686.88 41.4885 1681.22 41.6085C1674.7 41.7471 1667.97 45.0626 1661.47 42.9935C1660.12 42.5637 1658.59 42.1498 1657.33 41.4135C1656.8 41.1062 1656.13 40.5924 1655.52 40.5552C1653.71 40.4437 1651.98 40.2041 1650.13 40.2041C1644.56 40.2041 1638.65 40.0233 1633.2 38.8776C1626.38 37.4435 1618.96 36.215 1612.28 38.7215C1610.1 39.5389 1607.72 38.7996 1605.48 38.7996C1602.55 38.7996 1599.61 37.5918 1596.76 36.8684C1593.35 36.0046 1589.56 35.7083 1586.08 35.6395C1582.21 35.5628 1578.35 35.2884 1574.47 35.2884C1566.24 35.2884 1558.04 34.9372 1549.82 34.9372C1547.94 34.9372 1546.16 35.3353 1544.36 35.659C1541.9 36.1008 1539.76 38.0973 1537.22 38.0973C1534.8 38.0973 1530.72 38.6874 1528.45 37.2195C1527.24 36.4355 1524.98 36.3417 1523.64 36.3417C1519.35 36.3417 1514.4 38.2246 1510.36 39.5018C1506.88 40.6002 1503.19 40.8551 1499.6 40.9063C1496.22 40.9544 1492.93 41.6085 1489.55 41.6085C1482.77 41.6085 1475.97 43.013 1469.15 43.013C1466.35 43.013 1463.73 42.5426 1460.95 42.3108C1457.89 42.0556 1454.96 40.8097 1451.91 40.5552C1446.62 40.5552 1439.65 39.3618 1434.6 41.2579C1430.02 42.9776 1424.74 45.6696 1419.89 45.8225C1414.79 45.9836 1410.08 44.7691 1404.99 44.7691H1400.31C1398.62 44.7691 1396.28 44.2397 1394.63 44.7886C1392.06 45.6467 1390.47 47.6759 1388.35 49.4897C1384.59 52.7038 1380.26 52.4938 1375.82 52.4938H1374.36L1374.34 52.4937C1372.52 52.4889 1372.08 52.4877 1370.4 53.4691C1368.51 54.5753 1366.91 56.005 1364.69 56.005C1360.17 56.005 1355.72 54.9516 1351.3 54.9516C1348.83 54.9516 1346.79 55.6695 1344.37 56.2781C1342.7 56.6975 1341.58 58.3808 1339.96 58.892C1338.15 59.4649 1336.74 60.4932 1334.81 60.5696C1332.49 60.6617 1330.19 61.2718 1327.84 61.2718C1325.87 61.2718 1324.14 60.0882 1322.18 59.7893C1319.87 59.4381 1317.55 58.4665 1315.2 58.8335C1313.87 59.0394 1312.63 59.1651 1311.29 59.1651H1305.14C1303.84 59.1651 1302.63 59.8226 1301.36 59.8673C1295.67 60.0687 1290.26 63.3786 1284.55 63.3786C1280.77 63.3786 1276.81 63.5551 1273.09 64.2564C1269.84 64.8684 1266.92 64.4319 1263.75 64.4319C1260.28 64.4319 1256.69 63.7957 1253.27 63.1055C1251.23 62.6929 1248.15 62.6249 1246.34 61.4474C1244.9 60.5138 1242.19 60.408 1240.57 59.7503C1239.18 59.1847 1237.54 58.9625 1236.1 58.5409C1234.04 57.9421 1231.61 56.7073 1229.5 56.7073C1227.7 56.7073 1225.03 55.3752 1223.36 54.5396L1223.33 54.5225C1220.2 52.9569 1216.76 52.3843 1213.56 51.2454C1211.25 50.4244 1208.98 50.0404 1206.79 48.9045C1204.53 47.7325 1202.45 43.8744 1199.87 43.7156C1197.48 43.7156 1195.12 43.7173 1192.75 44.0862C1190.61 44.42 1188.69 45.4712 1186.49 45.4712C1184.66 45.4712 1182.91 45.1561 1181.09 45.1201C1178.8 45.0747 1174.45 44.888 1172.8 42.4867C1172.04 41.3777 1170 40.9067 1168.89 40.9067C1166.97 40.9067 1165.05 40.1506 1163.14 39.8533C1159.43 39.2745 1155.65 38.2581 1152.12 36.7712C1149.18 35.5353 1146.81 31.7775 1143.56 31.7775C1141.54 31.7775 1138.99 32.0881 1137.16 30.8997C1136.17 30.2584 1134.97 29.7475 1134.15 28.7929C1133.49 28.0178 1133.12 27.3409 1132.3 26.7837C1129.75 25.0534 1127.18 26.125 1124.5 26.8618C1121.02 27.8174 1117.31 28.6095 1113.69 27.642C1112.74 27.3892 1111.21 27.5842 1110.48 26.9398C1109.47 26.0615 1106.71 25.2877 1105.47 25.1257C1104.2 24.9615 1102.95 24.0205 1101.66 23.7017C1099.89 23.2666 1097.98 22.7176 1096.18 22.6483C1091.33 22.463 1086.49 21.9461 1081.61 21.9461C1077.5 21.9461 1073.47 22.0899 1069.39 22.3167C1065.85 22.5134 1062.13 23.1016 1058.65 23.7797C1055.68 24.3578 1052.97 26.1842 1049.94 26.4911C1048.52 26.6353 1046.91 26.5751 1045.51 26.3156C1043.03 25.8544 1040.18 24.1707 1037.63 24.8331C1035.81 25.3058 1033.93 26.0661 1032.03 25.7889C1029.96 25.4874 1028.17 24.731 1026.33 23.7797C1025.77 23.4897 1024.3 24.0528 1023.66 24.0528C1020.36 24.0528 1017.08 24.4274 1013.82 24.9501C1007.36 25.9849 999.46 28.5895 993.75 23.7407C991.752 22.0447 989.66 20.6636 987.133 21.1658C982.752 22.0363 978.167 21.5466 973.749 21.2243C970.399 20.9799 967.157 20.4173 963.874 19.9174C961.681 19.5835 959.715 18.4984 957.591 17.9082C953.907 16.8842 950.142 16.4727 946.63 14.6505C945.222 13.9199 942.987 13.93 941.451 13.8703C938.911 13.7715 936.402 13.5192 933.848 13.5192C930.419 13.5192 926.762 13.7717 923.371 14.2994C922.365 14.456 921.397 14.7441 920.397 14.9236C911.596 16.5043 902.571 16.0084 893.696 16.6792C885.667 16.6792 877.069 18.7242 870.672 24.3259C867.043 27.503 862.673 29.147 858.758 31.6605C855.11 34.0031 850.896 35.585 846.978 37.2394C842.278 39.2241 836.141 38.3007 831.406 37.0248C828.545 36.2542 826.104 34.3589 823.385 33.26C820.007 31.8949 816.043 31.9843 812.525 31.2508C810.609 30.8514 807.402 30.6504 805.574 31.5044C800.382 33.9288 794.429 36.6073 788.597 35.2107C786.398 34.684 784.149 34.3801 781.964 33.7087C780.196 33.1654 778.053 32.9875 776.233 32.8504C775.42 32.7892 774.139 32.6166 773.325 32.9089C766.292 35.4354 758.768 33.8696 751.804 32.2067C748.33 31.3771 744.715 31.2338 741.194 30.5486C738.182 29.9625 734.949 30.0219 731.887 30.0219C728.328 30.0219 724.331 28.7748 720.826 29.9439C719.201 30.4859 717.302 30.0829 715.646 30.4511C712.88 31.0662 710.111 31.3771 707.375 32.1287C705.891 32.5364 704.604 33.3674 703.165 33.8843C702.2 34.2307 701.492 35.4178 700.608 35.991C698.664 37.252 696.898 39.2748 694.743 39.8338C690.23 41.0048 686.05 42.8774 681.493 43.3841C670.953 44.556 660.365 44.9202 649.78 45.8029C645.194 46.1852 643.066 51.758 638.802 52.8643C636.557 53.4466 634.723 54.1298 632.335 53.8202C627.659 53.2136 623.06 53.8546 618.4 54.2298C613.767 54.6029 608.439 55.0455 604.782 58.6578C603.405 60.0187 602.603 62.8045 601.056 63.8076C600.404 64.2304 599.614 64.0807 598.884 64.0807H589.026C584.297 64.0807 579.55 62.5416 575.024 61.5446C571.926 60.8623 568.88 60.2451 565.75 59.6915C564.116 59.4025 562.484 59.6967 560.854 59.4964C555.784 58.8733 550.743 58.1115 545.649 58.1115C543.566 58.1115 540.965 57.6066 538.982 56.902C537.554 56.3944 535.899 55.5845 534.438 55.322C533.368 55.1298 532.428 54.4133 531.313 54.2686C529.017 53.9707 526.728 53.5239 524.429 53.1957C520.849 52.6845 516.915 52.1027 513.451 50.9134C510.262 49.8184 506.43 48.7244 503.075 48.6312C499.061 48.5196 495.07 47.9541 491.128 47.2462C488.627 46.797 486.107 46.8755 483.559 46.8755C478.705 46.8755 473.875 46.6626 469.022 46.5244C468.228 48.3776 463.063 49.9688 461.737 51.3621C460.672 52.4815 458.234 53.205 456.841 53.5664C455.872 53.818 455.293 54.8575 454.435 55.3025C452.377 56.3705 450.663 60.2841 449.189 62.1494C448.444 63.0909 447.811 64.5138 446.766 65.0559C445.278 65.8277 442.6 65.1339 440.985 65.1339C437.479 65.1339 433.963 65.2269 430.458 65.1339C429 65.0952 426.386 65.233 424.977 64.7633C424.504 64.6054 422.677 64.6543 422.404 64.2561C422.21 63.9726 420.57 62.7132 420.299 62.676C418.992 62.4966 417.932 61.3186 416.523 61.2716C412.474 61.1365 408.409 61.2716 404.359 61.2716C400.34 61.2716 396.62 62.414 392.479 61.4471C391.091 61.1233 389.626 61.3703 388.285 60.7254C387.236 60.2215 386.318 59.7997 385.143 59.594C383.836 59.365 382.463 59.8096 381.133 59.8671C380.296 59.9033 379.63 60.5119 378.794 60.5693C377.486 60.6591 376.077 61.2075 374.683 61.2521C372.56 61.32 370.501 61.1644 368.434 61.6032C367.698 61.7596 367.11 61.9738 366.329 61.9738H366.315C362.081 61.9738 356.254 61.9738 352.761 65.3094C351.735 66.2898 350.941 66.8895 349.62 66.8895C345.971 66.8895 342.18 66.7912 338.576 66.1677C335.932 65.7106 333.214 65.0722 330.555 64.8023C329.994 64.7453 329.701 64.4317 329.168 64.4317C327.187 64.4317 324.688 63.8473 322.852 64.7048C320.994 65.5724 318.098 65.485 316.085 65.485C314.599 65.485 312.811 66.2821 311.29 66.5189C309.18 66.8474 306.727 66.5754 304.807 65.485C303.217 64.5824 301.554 60.4737 299.995 59.8668C298.974 59.4696 297.801 58.6291 296.803 58.1112C295.31 57.3363 293.287 57.3044 291.707 56.8627C289.689 56.2987 287.569 55.7583 285.591 55.0291C283.601 54.2952 281.229 54.0582 279.409 52.8443C278.64 52.3315 276.333 49.5473 276.234 48.6309C276.153 47.8704 273.677 46.7718 273.093 46.5241C271.952 46.0395 270.734 45.9581 269.551 45.5488C267.498 44.8385 265.964 46.9705 263.77 46.5046C261.318 45.9841 258.609 44.7591 256.518 43.364C254.368 41.9295 252.738 41.6084 250.219 41.6084C249.176 41.6084 248.305 41.9159 247.295 41.9596L247.194 41.9638C246.289 42.0016 243.648 42.1118 243.151 42.8374C242.033 44.4685 237.845 43.7152 236.233 43.7152H231.271C230.221 43.7152 229.714 45.0061 229.015 45.8219C227.236 47.8993 225.1 47.0115 223 46.8753C221.645 46.7874 220.477 46.2596 219.224 45.8414C218.2 45.5001 217.082 45.6784 216.082 45.1977C215.733 45.0298 214.213 46.0982 213.827 46.3486C212.814 47.005 211.519 47.1041 210.518 47.7531C207.861 49.4767 204.923 45.4041 202.398 44.749C200.352 44.2184 198.205 41.8494 196.667 40.3795C195.083 38.8668 192.451 38.0972 190.518 38.0972C187.298 38.0972 184.171 38.4483 180.893 38.4483C179.877 38.4483 178.313 38.4914 177.435 37.9217C176.487 37.3074 175.005 37.7792 173.976 37.3169C172.139 36.4922 170.32 36.0207 168.696 34.9371C167.586 34.1971 166.567 33.7074 165.321 33.2595C162.941 32.4049 160.113 32.1282 157.601 32.1282C155.836 32.1282 154.246 31.4259 152.505 31.4259C151.358 31.4259 149.675 30.5284 148.561 31.2503C147.791 31.7502 145.325 33.1086 144.568 32.4012C144.093 31.9577 142.243 31.6829 141.611 31.7965C139.35 32.2025 137.527 34.2095 135.161 33.8643C134.289 33.737 132.758 33.5966 132.103 32.9084C131.236 31.9969 129.927 31.9372 129.179 30.9187C127.512 28.6475 122.091 30.2998 119.973 30.3725C118.607 30.4194 117.393 30.8551 116.029 31.0748C111.933 31.7344 107.696 32.0612 103.564 32.1282C100.868 32.1719 98.0037 32.9448 95.3602 33.5326C93.2224 34.008 91.4085 33.5326 89.2615 33.5326C80.9333 33.5326 72.9241 31.1893 65.2507 36.166C64.0909 36.9183 62.5638 38.288 61.1905 38.4483C60.4124 38.5392 59.9303 38.2819 59.2341 37.9103L59.2188 37.9021C58.5219 37.5302 57.7079 37.8741 56.9798 37.5705C53.4739 36.1088 49.2493 38.6311 45.9686 39.4822C43.3768 40.1546 39.4414 41.0503 36.9625 40.2235C34.8908 39.5324 33.4963 37.2595 31.482 36.4196C29.8723 35.7485 28.5224 34.2703 27.0875 33.201C24.7045 31.4252 22.1087 30.096 19.9862 27.9154C18.6504 25.5762 16.5334 26.5109 14.5725 26.5109C10.2904 26.5109 5.67535 27.0324 1.47272 26.1403C-0.215332 25.782 -1.84113 24.5766 -3.33942 23.702C-4.57233 22.9823 -6.15607 22.4814 -7.14905 21.3221C-8.27472 20.008 -10.8922 18.2291 -11.3096 16.5235C-11.7256 14.8238 -14.4832 13.5194 -15.8043 13.5194C-17.8054 13.5194 -19.8643 12.8172 -21.9365 12.8172H-26.6317C-28.1742 12.8172 -32.6976 11.9516 -34.0839 13.2463C-36.0278 15.0619 -37.832 15.9993 -40.4834 16.3089C-44.0136 16.721 -47.6429 16.075 -51.1605 15.9773C-53.2681 15.9187 -55.3428 15.275 -57.443 15.275C-63.4355 15.275 -69.4285 14.5728 -75.4552 14.5728C-80.6283 14.5728 -85.7027 15.9773 -90.8441 15.9773C-93.1207 15.9773 -95.6086 16.3982 -97.8786 16.7575C-99.5142 17.0165 -101.259 16.7618 -102.858 17.2062C-103.573 17.4049 -104.369 17.6989 -105.097 17.7329C-107.22 17.832 -109.525 18.6282 -111.597 19.1374C-113.526 19.6116 -115.457 20.0854 -117.411 20.5419C-121.738 21.5521 -126.284 21.5952 -130.695 21.5952C-133.708 21.5952 -136.949 21.735 -139.868 20.6979C-142.373 19.808 -145.351 19.7308 -147.721 18.5912C-149.322 17.8217 -150.951 17.7329 -152.65 17.7329L-166.786 17.7327C-168.171 17.7327 -169.298 17.4723 -170.696 17.3816C-171.755 17.313 -174.756 17.5221 -175.575 16.7574C-176.237 16.1391 -178.984 16.3766 -179.853 16.3283C-183.194 16.1425 -186.437 14.9238 -189.794 14.9238C-191.078 14.9238 -192.728 13.8311 -194.005 13.4998C-195.396 13.139 -196.748 13.1682 -198.216 13.1682C-201.207 13.1682 -204.239 12.8944 -207.155 12.817C-211.359 12.7055 -215.261 13.1682 -219.419 13.1682H-223.931C-225.283 13.1682 -226.947 12.1964 -228.309 12.4854C-230.133 12.8727 -232.299 12.429 -234.023 13.3437C-235.361 14.054 -236.534 14.7511 -237.799 15.4895C-239.741 16.623 -241.656 17.7615 -243.631 18.7861C-245.345 19.6756 -246.176 21.2519 -248.125 21.9462C-250.367 22.7447 -253.494 23.7018 -255.878 23.7018C-257.997 23.7018 -260.047 24.5378 -262.194 25.0283C-263.05 25.2238 -264.569 25.3532 -265.285 26.0036C-265.928 26.5869 -266.539 27.3557 -267.24 27.8372C-268.429 28.6534 -269.461 29.4588 -270.849 29.6904C-273.581 30.146 -276.062 29.6709 -278.82 29.6709C-282.836 29.6709 -286.883 29.3198 -290.85 29.3198C-292.365 29.3198 -293.9 29.6709 -295.345 29.6709C-296.484 29.6709 -298.302 29.4679 -299.188 30.2951C-299.422 30.5138 -299.911 30.382 -300.207 30.5682C-300.866 30.9826 -301.464 31.4888 -302.112 31.9142C-302.635 32.2577 -303.682 33.1062 -304.234 33.1821C-304.985 33.2853 -305.468 34.5997 -306.172 34.8987C-308.081 35.7091 -311.449 34.9408 -313.324 34.7817C-318.418 34.3491 -323.583 33.6958 -328.445 34.9572C-331.81 35.8302 -333.817 39.5253 -336.048 42.2332C-337.065 43.4689 -337.769 45.1202 -339.423 45.1202C-342.305 45.1202 -345.026 44.418 -347.911 44.418L-348.085 44.418C-351.015 44.417 -354.943 44.4158 -357.335 46.7003C-358.358 47.6779 -359.489 48.9145 -360.643 49.6848C-362.185 50.7132 -362.549 51.4404 -364.52 51.4404H-371.304C-375.709 51.4404 -379.99 51.3161 -384.303 50.309C-386.175 49.872 -387.854 48.9826 -389.784 48.9826C-393.38 48.9826 -397.438 48.9208 -400.945 49.6653C-403.073 50.117 -405.356 50.3188 -407.412 50.7187C-409.943 51.2113 -412.633 50.9489 -415.148 51.616C-419.789 52.8474 -425.348 51.4404 -430.052 51.4404C-436.727 51.4404 -443.592 51.2519 -448.432 56.9023C-450.343 59.1332 -451.942 62.7724 -454.464 64.0808C-457.86 65.8431 -461.242 65.3427 -464.907 65.4853C-466.761 65.5575 -468.327 66.8898 -470.187 66.8898H-476.804C-481.441 66.8898 -486.223 66.4877 -490.823 65.8559C-493.957 65.4254 -497.176 65.4853 -500.347 65.4853C-503.169 65.4853 -505.127 67.4103 -508.016 66.6167C-509.909 66.0969 -511.725 66.1662 -513.563 65.2122C-514.475 64.7391 -515.989 64.0808 -517.022 64.0808C-518.306 64.0808 -520.449 63.367 -521.684 62.8519Z" fill="white"/>
</g>
<defs>
<clipPath id="clip0_621_3772">
<rect width="700" height="70" fill="white"/>
</clipPath>
</defs>
</svg>
