<svg width="1440" height="47" viewBox="0 0 1440 47" fill="none" xmlns="http://www.w3.org/2000/svg">
<path d="M-195.359 42.8523C-196.863 42.357 -198.501 42.3862 -200 41.7318V0H1659V42.1505C1657.16 42.1505 1655.37 44.901 1654.08 45.8178C1652.79 46.7346 1650.48 47.3903 1649.06 46.7346C1648.29 46.3832 1646.91 45.9894 1646.07 45.8178C1644.76 45.549 1643.67 44.7074 1642.43 44.3803C1640.85 43.9664 1639.62 44.2414 1637.99 44.3916C1636.34 44.5437 1634.73 44.584 1633.06 44.584C1630.24 44.584 1627.46 43.3631 1624.66 42.9655C1622.37 42.641 1620.08 42.3827 1617.78 42.7617C1615.42 43.1521 1613.09 43.9746 1610.71 44.1653C1608.06 44.3779 1605.71 44.7713 1603.08 43.9615C1601.36 43.433 1600.27 43.1716 1598.82 42.1505C1597.98 41.566 1597.29 40.8889 1596.35 40.4074C1595.41 39.9278 1594.44 39.0712 1593.48 38.6757C1592.43 38.2478 1590.54 37.148 1589.83 36.3327C1589.19 35.6014 1587.33 36.2308 1586.56 36.2308C1585.43 36.2308 1584.35 36.6383 1583.2 36.6383C1580.66 36.6383 1577.45 36.0179 1575.12 35.0084C1574.2 34.6088 1573.07 34.5061 1572.15 34.1482C1571.01 33.7076 1569.94 33.1321 1568.79 32.722C1565.36 31.5077 1562.04 32.6546 1558.5 32.7673C1557 32.8147 1555.14 32.7288 1553.78 32.1561C1552.15 31.4674 1549.44 30.6427 1547.67 30.5262C1546.38 30.4412 1545.12 30.1187 1543.76 30.1187C1541.42 30.1187 1538.76 29.8532 1536.47 30.3677C1534.45 30.8221 1532.36 31.915 1530.26 31.9523C1527.6 31.9995 1525.37 31.5843 1522.79 30.9337C1520.37 30.32 1517.85 30.4213 1515.33 30.2772C1510.98 30.0282 1506.67 29.4947 1502.32 29.3038C1498.5 30.4762 1493.84 28.7051 1489.94 29.462C1489.01 29.6425 1487.83 29.5073 1486.89 29.5073C1485.57 29.5073 1484.29 29.711 1482.98 29.711C1481.15 29.711 1479.36 30.2779 1477.56 30.5146C1474.91 30.8639 1472.14 30.6512 1469.51 31.1824C1467.21 31.6484 1464.84 31.8158 1462.54 32.2577C1461.35 32.4857 1459.89 32.4664 1458.67 32.3483C1456.69 32.1558 1454.69 32.0837 1452.69 31.9068C1450.01 31.6694 1447.34 31.3968 1444.66 31.1372C1443.4 31.0153 1442.17 30.7876 1440.93 31.0919C1439.46 31.454 1437.14 31.2337 1435.59 31.0353C1431.44 30.5041 1427.45 30.4563 1423.3 30.5259C1418.5 30.6063 1413.56 32.5302 1408.79 31.3296C1407.79 31.0802 1406.67 30.84 1405.74 30.4128C1405.35 30.2345 1404.86 29.9363 1404.42 29.9147C1403.08 29.85 1401.81 29.711 1400.45 29.711C1396.36 29.711 1392.02 29.6061 1388.01 28.9413C1383 28.1092 1377.55 27.3963 1372.64 28.8508C1371.04 29.3251 1369.29 28.896 1367.64 28.896C1365.49 28.896 1363.33 28.1952 1361.24 27.7755C1358.73 27.2743 1355.95 27.1023 1353.39 27.0624C1350.54 27.0179 1347.71 26.8587 1344.86 26.8587C1338.81 26.8587 1332.79 26.6549 1326.75 26.6549C1325.36 26.6549 1324.06 26.8859 1322.73 27.0737C1320.93 27.3301 1319.36 28.4886 1317.49 28.4886C1315.71 28.4886 1312.71 28.831 1311.05 27.9792C1310.16 27.5243 1308.49 27.4699 1307.51 27.4699C1304.36 27.4699 1300.72 28.5624 1297.75 29.3035C1295.19 29.9408 1292.48 30.0888 1289.84 30.1185C1287.36 30.1464 1284.94 30.5259 1282.46 30.5259C1277.48 30.5259 1272.48 31.3409 1267.47 31.3409C1265.41 31.3409 1263.49 31.068 1261.44 30.9334C1259.2 30.7854 1257.04 30.0624 1254.8 29.9147C1250.92 29.9147 1245.8 29.2223 1242.08 30.3225C1238.72 31.3204 1234.84 32.8824 1231.28 32.9711C1227.53 33.0646 1224.07 32.3599 1220.33 32.3599H1216.89C1215.65 32.3599 1213.92 32.0526 1212.72 32.3712C1210.82 32.8691 1209.66 34.0465 1208.1 35.099C1205.34 36.9639 1202.16 36.8421 1198.89 36.8421H1197.82L1197.8 36.842C1196.47 36.8392 1196.15 36.8385 1194.91 37.408C1193.52 38.0499 1192.35 38.8794 1190.71 38.8794C1187.4 38.8794 1184.13 38.2682 1180.88 38.2682C1179.06 38.2682 1177.56 38.6848 1175.78 39.0379C1174.56 39.2813 1173.73 40.258 1172.54 40.5546C1171.21 40.887 1170.18 41.4837 1168.76 41.528C1167.05 41.5815 1165.37 41.9355 1163.64 41.9355C1162.19 41.9355 1160.92 41.2487 1159.48 41.0753C1157.79 40.8715 1156.08 40.3077 1154.35 40.5207C1153.38 40.6401 1152.47 40.7131 1151.48 40.7131H1146.96C1146 40.7131 1145.11 41.0946 1144.18 41.1206C1140 41.2374 1136.03 43.1579 1131.83 43.1579C1129.05 43.1579 1126.15 43.2604 1123.41 43.6673C1121.02 44.0224 1118.88 43.7691 1116.55 43.7691C1114 43.7691 1111.36 43.4 1108.85 42.9995C1107.35 42.7601 1105.09 42.7206 1103.75 42.0374C1102.7 41.4956 1100.71 41.4342 1099.52 41.0526C1098.49 40.7244 1097.29 40.5955 1096.23 40.3509C1094.72 40.0034 1092.93 39.2869 1091.38 39.2869C1090.06 39.2869 1088.1 38.514 1086.87 38.0292L1086.85 38.0192C1084.55 37.1108 1082.02 36.7785 1079.66 36.1177C1077.97 35.6413 1076.3 35.4185 1074.69 34.7594C1073.03 34.0793 1071.51 31.8407 1069.61 31.7486C1067.85 31.7486 1066.12 31.7495 1064.38 31.9636C1062.8 32.1573 1061.4 32.7673 1059.78 32.7673C1058.43 32.7673 1057.15 32.5844 1055.81 32.5635C1054.12 32.5372 1050.93 32.4289 1049.72 31.0355C1049.16 30.392 1047.66 30.1187 1046.85 30.1187C1045.43 30.1187 1044.03 29.68 1042.62 29.5075C1039.89 29.1716 1037.12 28.5819 1034.52 27.7191C1032.36 27.0019 1030.62 24.8215 1028.23 24.8215C1026.75 24.8215 1024.88 25.0018 1023.53 24.3122C1022.81 23.94 1021.92 23.6436 1021.32 23.0897C1020.83 22.6399 1020.56 22.2472 1019.96 21.9239C1018.09 20.9199 1016.2 21.5417 1014.23 21.9692C1011.67 22.5237 1008.95 22.9833 1006.28 22.4219C1005.59 22.2752 1004.47 22.3884 1003.93 22.0145C1003.19 21.5048 1001.16 21.0558 1000.24 20.9618C999.312 20.8666 998.396 20.3205 997.443 20.1355C996.142 19.8831 994.745 19.5645 993.416 19.5243C989.858 19.4168 986.301 19.1169 982.71 19.1169C979.694 19.1169 976.732 19.2003 973.735 19.3319C971.135 19.446 968.401 19.7874 965.841 20.1808C963.658 20.5162 961.666 21.576 959.444 21.7541C958.401 21.8378 957.217 21.8028 956.19 21.6523C954.366 21.3847 952.272 20.4077 950.396 20.792C949.057 21.0663 947.678 21.5075 946.283 21.3466C944.765 21.1717 943.443 20.7328 942.096 20.1808C941.685 20.0126 940.604 20.3393 940.132 20.3393C937.709 20.3393 935.297 20.5566 932.9 20.8599C928.155 21.4604 922.351 22.9717 918.155 20.1582C916.687 19.1741 915.15 18.3727 913.293 18.6641C910.074 19.1692 906.705 18.8851 903.459 18.6981C900.997 18.5562 898.615 18.2298 896.203 17.9397C894.592 17.746 893.147 17.1163 891.587 16.7739C888.88 16.1797 886.113 15.9409 883.533 14.8836C882.498 14.4597 880.855 14.4656 879.727 14.4309C877.861 14.3736 876.017 14.2272 874.14 14.2272C871.621 14.2272 868.933 14.3737 866.443 14.6799C865.703 14.7708 864.991 14.9379 864.257 15.0421C857.79 15.9593 851.159 15.6715 844.638 16.0608C838.738 16.0608 832.42 17.2474 827.72 20.4978C825.053 22.3412 821.842 23.2952 818.966 24.7536C816.285 26.1129 813.189 27.0308 810.31 27.9908C806.857 29.1424 802.347 28.6066 798.867 27.8663C796.766 27.4191 794.972 26.3193 792.974 25.6818C790.492 24.8896 787.579 24.9415 784.994 24.5159C783.586 24.2841 781.23 24.1675 779.887 24.6631C776.072 26.0698 771.698 27.624 767.413 26.8136C765.797 26.508 764.144 26.3316 762.539 25.9421C761.239 25.6269 759.665 25.5236 758.328 25.4441C757.73 25.4085 756.789 25.3084 756.191 25.478C751.023 26.944 745.495 26.0355 740.378 25.0705C737.825 24.5892 735.169 24.506 732.582 24.1084C730.368 23.7683 727.993 23.8028 725.743 23.8028C723.128 23.8028 720.191 23.0792 717.616 23.7576C716.422 24.0721 715.026 23.8382 713.809 24.0519C711.777 24.4088 709.743 24.5892 707.732 25.0253C706.642 25.2618 705.696 25.744 704.638 26.044C703.93 26.245 703.409 26.9338 702.76 27.2664C701.331 27.9981 700.034 29.1718 698.45 29.4962C695.134 30.1756 692.062 31.2622 688.714 31.5562C680.969 32.2362 673.19 32.4475 665.412 32.9597C662.043 33.1816 660.479 36.4151 657.346 37.0571C655.697 37.3949 654.348 37.7914 652.594 37.6117C649.158 37.2597 645.779 37.6317 642.355 37.8494C638.95 38.0659 635.036 38.3227 632.349 40.4187C631.336 41.2084 630.747 42.8248 629.611 43.4069C629.132 43.6522 628.551 43.5654 628.015 43.5654H620.771C617.296 43.5654 613.808 42.6723 610.483 42.0938C608.206 41.6979 605.968 41.3397 603.669 41.0185C602.468 40.8508 601.269 41.0215 600.071 40.9053C596.346 40.5438 592.642 40.1017 588.899 40.1017C587.368 40.1017 585.457 39.8087 584 39.3999C582.95 39.1054 581.735 38.6354 580.661 38.4831C579.874 38.3716 579.184 37.9558 578.365 37.8719C576.677 37.6991 574.995 37.4398 573.306 37.2494C570.676 36.9528 567.785 36.6152 565.24 35.9251C562.897 35.2897 560.081 34.6549 557.616 34.6008C554.667 34.5361 551.734 34.2079 548.838 33.7972C547 33.5366 545.148 33.5821 543.276 33.5821C539.709 33.5821 536.16 33.4585 532.594 33.3784C532.011 34.4537 528.216 35.3769 527.242 36.1854C526.459 36.8349 524.668 37.2548 523.644 37.4644C522.932 37.6104 522.506 38.2136 521.876 38.4718C520.364 39.0915 519.105 41.3624 518.021 42.4447C517.474 42.991 517.009 43.8167 516.241 44.1312C515.148 44.5791 513.18 44.1765 511.993 44.1765C509.417 44.1765 506.833 44.2304 504.258 44.1765C503.187 44.154 501.266 44.234 500.231 43.9614C499.884 43.8698 498.541 43.8982 498.34 43.6671C498.198 43.5026 496.992 42.7719 496.793 42.7503C495.833 42.6462 495.054 41.9626 494.019 41.9353C491.044 41.857 488.057 41.9353 485.081 41.9353C482.128 41.9353 479.394 42.5983 476.352 42.0372C475.332 41.8493 474.256 41.9927 473.27 41.6184C472.5 41.326 471.825 41.0813 470.962 40.9619C470.001 40.8291 468.992 41.087 468.015 41.1204C467.4 41.1414 466.911 41.4945 466.296 41.5279C465.335 41.58 464.3 41.8982 463.276 41.924C461.716 41.9634 460.203 41.8732 458.684 42.1278C458.143 42.2185 457.711 42.3428 457.137 42.3428H457.127C454.016 42.3428 449.734 42.3428 447.168 44.2783C446.414 44.8472 445.83 45.1951 444.86 45.1951C442.179 45.1951 439.393 45.1381 436.745 44.7763C434.802 44.5111 432.805 44.1407 430.851 43.984C430.439 43.951 430.224 43.769 429.832 43.769C428.376 43.769 426.541 43.4299 425.192 43.9274C423.826 44.4309 421.698 44.3802 420.219 44.3802C419.127 44.3802 417.813 44.8427 416.695 44.9801C415.145 45.1707 413.343 45.0129 411.932 44.3802C410.764 43.8565 409.542 41.4724 408.396 41.1202C407.646 40.8898 406.784 40.402 406.051 40.1015C404.954 39.6519 403.467 39.6334 402.306 39.3771C400.824 39.0498 399.266 38.7363 397.813 38.3132C396.35 37.8873 394.607 37.7498 393.27 37.0455C392.705 36.7479 391.01 35.1324 390.937 34.6006C390.878 34.1594 389.058 33.5219 388.629 33.3782C387.791 33.097 386.896 33.0498 386.026 32.8123C384.518 32.4001 383.391 33.6372 381.779 33.3669C379.977 33.0649 377.987 32.354 376.45 31.5446C374.87 30.7122 373.672 30.5259 371.822 30.5259C371.055 30.5259 370.416 30.7043 369.673 30.7296L369.599 30.7321C368.934 30.754 366.993 30.8179 366.628 31.239C365.807 32.1854 362.73 31.7483 361.545 31.7483H357.899C357.127 31.7483 356.755 32.4974 356.241 32.9707C354.934 34.1761 353.365 33.661 351.822 33.5819C350.826 33.531 349.968 33.2247 349.047 32.982C348.295 32.784 347.473 32.8875 346.739 32.6085C346.482 32.5111 345.365 33.1311 345.081 33.2763C344.338 33.6572 343.386 33.7147 342.65 34.0913C340.698 35.0914 338.539 32.7283 336.683 32.3482C335.181 32.0403 333.603 30.6657 332.472 29.8128C331.309 28.9351 329.375 28.4885 327.954 28.4885C325.589 28.4885 323.291 28.6922 320.882 28.6922C320.136 28.6922 318.986 28.7172 318.341 28.3866C317.645 28.0302 316.556 28.304 315.8 28.0358C314.45 27.5572 313.113 27.2836 311.92 26.6549C311.105 26.2255 310.356 25.9413 309.44 25.6815C307.692 25.1855 305.613 25.025 303.768 25.025C302.471 25.025 301.303 24.6175 300.023 24.6175C299.181 24.6175 297.943 24.0967 297.126 24.5156C296.559 24.8057 294.748 25.5939 294.191 25.1834C293.842 24.9261 292.483 24.7666 292.018 24.8326C290.357 25.0681 289.017 26.2327 287.279 26.0323C286.638 25.9585 285.514 25.877 285.032 25.4777C284.395 24.9488 283.433 24.9142 282.884 24.3232C281.658 23.0053 277.675 23.9641 276.119 24.0063C275.116 24.0335 274.224 24.2863 273.221 24.4138C270.211 24.7965 267.099 24.9861 264.062 25.025C262.082 25.0503 259.977 25.4988 258.034 25.8399C256.463 26.1158 255.131 25.8399 253.553 25.8399C247.434 25.8399 241.549 24.4802 235.91 27.368C235.058 27.8044 233.936 28.5992 232.927 28.6922C232.355 28.745 232.001 28.5957 231.489 28.3801L231.478 28.3753C230.966 28.1595 230.368 28.359 229.833 28.1829C227.257 27.3347 224.153 28.7983 221.742 29.2921C219.838 29.6823 216.946 30.202 215.125 29.7222C213.602 29.3213 212.578 28.0024 211.098 27.5151C209.915 27.1257 208.923 26.2679 207.869 25.6475C206.118 24.6171 204.21 23.8458 202.651 22.5805C201.669 21.2232 200.114 21.7656 198.673 21.7656C195.526 21.7656 192.135 22.0682 189.047 21.5505C187.807 21.3426 186.612 20.6432 185.511 20.1357C184.606 19.7181 183.442 19.4275 182.712 18.7548C181.885 17.9923 179.962 16.9601 179.655 15.9704C179.349 14.9842 177.323 14.2273 176.352 14.2273C174.882 14.2273 173.369 13.8198 171.847 13.8198H168.397C167.263 13.8198 163.94 13.3176 162.921 14.0689C161.493 15.1223 160.167 15.6663 158.219 15.8459C155.625 16.085 152.958 15.7102 150.373 15.6535C148.825 15.6195 147.3 15.246 145.757 15.246C141.354 15.246 136.95 14.8385 132.522 14.8385C128.721 14.8385 124.992 15.6535 121.215 15.6535C119.542 15.6535 117.714 15.8977 116.046 16.1062C114.844 16.2565 113.562 16.1087 112.387 16.3666C111.862 16.4819 111.277 16.6524 110.742 16.6722C109.182 16.7297 107.488 17.1917 105.966 17.4871C104.548 17.7623 103.13 18.0372 101.693 18.3021C98.5142 18.8883 95.174 18.9133 91.9328 18.9133C89.7191 18.9133 87.3373 18.9944 85.1925 18.3926C83.3522 17.8762 81.164 17.8314 79.4221 17.1702C78.2459 16.7237 77.0488 16.6722 75.8003 16.6722L65.4136 16.6721C64.3961 16.6721 63.568 16.521 62.5406 16.4683C61.7628 16.4285 59.5573 16.5499 58.9557 16.1061C58.4692 15.7474 56.451 15.8852 55.8126 15.8571C53.3577 15.7494 50.9743 15.0422 48.5076 15.0422C47.5642 15.0422 46.3519 14.4081 45.4136 14.2159C44.3919 14.0066 43.3978 14.0235 42.3197 14.0235C40.1218 14.0235 37.8942 13.8647 35.7513 13.8198C32.6621 13.755 29.7952 14.0235 26.7397 14.0235H23.4247C22.4308 14.0235 21.2086 13.4596 20.2081 13.6273C18.8676 13.852 17.2758 13.5946 16.0092 14.1254C15.0257 14.5375 14.1639 14.942 13.2345 15.3704C11.8076 16.0281 10.4006 16.6888 8.94966 17.2833C7.69 17.7994 7.07938 18.7141 5.64702 19.1169C3.99977 19.5802 1.70219 20.1356 -0.0497131 20.1356C-1.60637 20.1356 -3.11263 20.6207 -4.69057 20.9053C-5.31944 21.0187 -6.43556 21.0938 -6.96191 21.4712C-7.43388 21.8097 -7.88316 22.2558 -8.39836 22.5352C-9.27162 23.0088 -10.0301 23.4761 -11.0503 23.6105C-13.0575 23.8748 -14.8802 23.5992 -16.9066 23.5992C-19.8576 23.5992 -22.8312 23.3954 -25.7464 23.3954C-26.8592 23.3954 -27.9874 23.5992 -29.049 23.5992C-29.8858 23.5992 -31.222 23.4814 -31.8728 23.9614C-32.0449 24.0883 -32.4041 24.0118 -32.6217 24.1198C-33.1061 24.3602 -33.5455 24.654 -34.0214 24.9008C-34.4058 25.1001 -35.1748 25.5925 -35.5806 25.6365C-36.1328 25.6964 -36.4872 26.4591 -37.0048 26.6326C-38.4075 27.1028 -40.8822 26.657 -42.2595 26.5647C-46.0031 26.3137 -49.7979 25.9346 -53.3706 26.6665C-55.843 27.1731 -57.318 29.3171 -58.9568 30.8884C-59.7046 31.6054 -60.2215 32.5636 -61.4369 32.5636C-63.5543 32.5636 -65.5537 32.1561 -67.6738 32.1561L-67.8017 32.1561C-69.9544 32.1556 -72.8409 32.1548 -74.5983 33.4804C-75.3503 34.0476 -76.1808 34.7652 -77.0292 35.2122C-78.1619 35.8089 -78.4291 36.2309 -79.8776 36.2309H-84.8622C-88.0992 36.2309 -91.2449 36.1587 -94.4141 35.5744C-95.7896 35.3208 -97.023 34.8047 -98.4411 34.8047C-101.084 34.8047 -104.065 34.7688 -106.642 35.2009C-108.206 35.4629 -109.884 35.58 -111.394 35.8121C-113.254 36.0979 -115.231 35.9456 -117.078 36.3327C-120.488 37.0472 -124.573 36.2309 -128.03 36.2309C-132.934 36.2309 -137.978 36.1214 -141.535 39.4001C-142.939 40.6945 -144.114 42.8062 -145.967 43.5654C-148.463 44.588 -150.947 44.2976 -153.64 44.3804C-155.003 44.4222 -156.153 45.1953 -157.52 45.1953H-162.382C-165.789 45.1953 -169.303 44.962 -172.683 44.5954C-174.986 44.3456 -177.351 44.3804 -179.681 44.3804C-181.755 44.3804 -183.193 45.4973 -185.316 45.0368C-186.707 44.7352 -188.041 44.7754 -189.392 44.2219C-190.062 43.9474 -191.174 43.5654 -191.934 43.5654C-192.877 43.5654 -194.451 43.1512 -195.359 42.8523Z" fill="#EAEDF1"/>
</svg>
