<svg width="1440" height="40" viewBox="0 0 1440 40" fill="none" xmlns="http://www.w3.org/2000/svg">
<path d="M3.59486 36.0132C2.4296 35.5969 1.16086 35.6215 0 35.0715V0H1440V35.4234C1438.58 35.4234 1437.19 37.7349 1436.19 38.5054C1435.19 39.2759 1433.4 39.8269 1432.3 39.2759C1431.71 38.9805 1430.63 38.6496 1429.99 38.5054C1428.97 38.2795 1428.12 37.5722 1427.16 37.2973C1425.94 36.9495 1424.99 37.1806 1423.73 37.3068C1422.45 37.4346 1421.2 37.4686 1419.91 37.4686C1417.72 37.4686 1415.57 36.4424 1413.4 36.1083C1411.63 35.8356 1409.85 35.6186 1408.07 35.9371C1406.24 36.2652 1404.44 36.9564 1402.6 37.1166C1400.54 37.2953 1398.72 37.626 1396.68 36.9454C1395.35 36.5012 1394.51 36.2815 1393.38 35.4234C1392.74 34.9322 1392.2 34.3631 1391.47 33.9585C1390.74 33.5554 1389.99 32.8356 1389.24 32.5031C1388.44 32.1436 1386.97 31.2193 1386.42 30.5341C1385.93 29.9195 1384.48 30.4485 1383.89 30.4485C1383.01 30.4485 1382.17 30.7909 1381.28 30.7909C1379.32 30.7909 1376.83 30.2695 1375.03 29.4212C1374.31 29.0854 1373.44 28.999 1372.72 28.6982C1371.85 28.328 1371.01 27.8443 1370.12 27.4997C1367.47 26.4792 1364.89 27.443 1362.15 27.5377C1360.99 27.5776 1359.55 27.5054 1358.5 27.0241C1357.23 26.4453 1355.13 25.7522 1353.76 25.6543C1352.76 25.5828 1351.79 25.3118 1350.74 25.3118C1348.92 25.3118 1346.86 25.0887 1345.09 25.5211C1343.52 25.903 1341.91 26.8215 1340.28 26.8528C1338.22 26.8924 1336.49 26.5435 1334.49 25.9967C1332.61 25.481 1330.66 25.5661 1328.71 25.445C1325.34 25.2358 1322 24.7875 1318.63 24.627C1315.68 25.6123 1312.07 24.1238 1309.04 24.7599C1308.32 24.9117 1307.41 24.798 1306.69 24.798C1305.66 24.798 1304.66 24.9692 1303.65 24.9692C1302.24 24.9692 1300.85 25.4457 1299.46 25.6446C1297.4 25.9381 1295.25 25.7593 1293.22 26.2058C1291.44 26.5974 1289.6 26.7381 1287.82 27.1095C1286.9 27.301 1285.76 27.2848 1284.82 27.1856C1283.29 27.0238 1281.74 26.9632 1280.19 26.8146C1278.12 26.6151 1276.04 26.386 1273.97 26.1677C1273 26.0653 1272.04 25.874 1271.08 26.1297C1269.94 26.4341 1268.14 26.2488 1266.94 26.0821C1263.73 25.6357 1260.64 25.5955 1257.42 25.6541C1253.71 25.7216 1249.88 27.3384 1246.18 26.3295C1245.41 26.1199 1244.54 25.918 1243.82 25.559C1243.52 25.4091 1243.14 25.1586 1242.8 25.1404C1241.76 25.086 1240.78 24.9692 1239.72 24.9692C1236.55 24.9692 1233.19 24.8811 1230.09 24.3224C1226.21 23.6231 1221.99 23.024 1218.18 24.2463C1216.94 24.6449 1215.59 24.2843 1214.31 24.2843C1212.64 24.2843 1210.97 23.6954 1209.35 23.3426C1207.41 22.9214 1205.25 22.7769 1203.27 22.7433C1201.07 22.7059 1198.87 22.5721 1196.66 22.5721C1191.98 22.5721 1187.31 22.4009 1182.63 22.4009C1181.56 22.4009 1180.55 22.595 1179.52 22.7528C1178.12 22.9683 1176.91 23.9419 1175.46 23.9419C1174.08 23.9419 1171.76 24.2296 1170.47 23.5138C1169.78 23.1315 1168.49 23.0858 1167.73 23.0858C1165.29 23.0858 1162.48 24.004 1160.17 24.6268C1158.19 25.1624 1156.09 25.2867 1154.05 25.3116C1152.12 25.3351 1150.25 25.6541 1148.33 25.6541C1144.47 25.6541 1140.6 26.339 1136.72 26.339C1135.12 26.339 1133.63 26.1096 1132.05 25.9965C1130.31 25.8721 1128.64 25.2645 1126.9 25.1404C1123.9 25.1404 1119.93 24.5585 1117.05 25.4831C1114.44 26.3217 1111.44 27.6344 1108.68 27.709C1105.78 27.7876 1103.1 27.1953 1100.2 27.1953H1097.54C1096.57 27.1953 1095.24 26.9371 1094.3 27.2048C1092.84 27.6233 1091.93 28.6128 1090.73 29.4973C1088.59 31.0646 1086.13 30.9622 1083.59 30.9622H1082.76L1082.75 30.9622C1081.72 30.9598 1081.47 30.9592 1080.51 31.4378C1079.44 31.9772 1078.52 32.6744 1077.26 32.6744C1074.69 32.6744 1072.16 32.1607 1069.64 32.1607C1068.23 32.1607 1067.07 32.5108 1065.7 32.8076C1064.75 33.0121 1064.11 33.8329 1063.19 34.0822C1062.15 34.3616 1061.36 34.863 1060.26 34.9003C1058.93 34.9452 1057.63 35.2427 1056.29 35.2427C1055.17 35.2427 1054.18 34.6655 1053.07 34.5198C1051.75 34.3485 1050.43 33.8747 1049.09 34.0537C1048.34 34.1541 1047.63 34.2154 1046.87 34.2154H1043.37C1042.63 34.2154 1041.94 34.536 1041.22 34.5578C1037.98 34.656 1034.9 36.27 1031.65 36.27C1029.5 36.27 1027.25 36.3561 1025.13 36.6981C1023.28 36.9965 1021.61 36.7837 1019.81 36.7837C1017.83 36.7837 1015.79 36.4734 1013.85 36.1369C1012.68 35.9357 1010.93 35.9025 1009.9 35.3283C1009.08 34.873 1007.54 34.8214 1006.62 34.5007C1005.83 34.2249 1004.89 34.1166 1004.07 33.911C1002.9 33.619 1001.51 33.0168 1000.31 33.0168C999.29 33.0168 997.775 32.3673 996.824 31.9598L996.805 31.9515C995.024 31.188 993.066 30.9088 991.241 30.3534C989.926 29.9531 988.636 29.7658 987.39 29.2119C986.104 28.6404 984.923 26.759 983.452 26.6816C982.092 26.6816 980.75 26.6824 979.401 26.8623C978.18 27.0251 977.091 27.5377 975.834 27.5377C974.795 27.5377 973.799 27.384 972.763 27.3665C971.456 27.3443 968.982 27.2533 968.046 26.0823C967.613 25.5415 966.453 25.3118 965.82 25.3118C964.724 25.3118 963.636 24.9431 962.549 24.7981C960.432 24.5159 958.286 24.0203 956.272 23.2952C954.598 22.6925 953.254 20.8601 951.403 20.8601C950.255 20.8601 948.803 21.0115 947.76 20.432C947.198 20.1193 946.514 19.8701 946.049 19.4047C945.671 19.0267 945.46 18.6966 944.993 18.4249C943.542 17.5811 942.078 18.1037 940.552 18.463C938.571 18.929 936.462 19.3152 934.398 18.8434C933.859 18.7201 932.991 18.8153 932.573 18.501C932.002 18.0727 930.43 17.6954 929.719 17.6164C928.999 17.5363 928.289 17.0774 927.551 16.922C926.544 16.7098 925.461 16.4421 924.432 16.4083C921.676 16.3179 918.92 16.0659 916.139 16.0659C913.803 16.0659 911.508 16.136 909.187 16.2466C907.173 16.3425 905.055 16.6294 903.072 16.96C901.381 17.2419 899.838 18.1325 898.117 18.2822C897.309 18.3525 896.392 18.3231 895.597 18.1966C894.183 17.9717 892.561 17.1507 891.108 17.4737C890.071 17.7042 889.003 18.0749 887.922 17.9398C886.746 17.7928 885.722 17.4239 884.679 16.96C884.361 16.8186 883.523 17.0932 883.157 17.0932C881.281 17.0932 879.413 17.2758 877.556 17.5308C873.88 18.0354 869.385 19.3055 866.134 16.941C864.997 16.1139 863.807 15.4405 862.368 15.6854C859.875 16.1099 857.265 15.8711 854.75 15.7139C852.844 15.5947 850.998 15.3204 849.13 15.0766C847.882 14.9138 846.762 14.3846 845.554 14.0968C843.457 13.5975 841.314 13.3968 839.315 12.5083C838.514 12.152 837.241 12.1569 836.367 12.1278C834.922 12.0796 833.494 11.9565 832.04 11.9565C830.088 11.9565 828.007 12.0797 826.077 12.337C825.504 12.4134 824.953 12.5539 824.384 12.6414C819.375 13.4122 814.238 13.1704 809.187 13.4975C804.617 13.4975 799.723 14.4948 796.082 17.2264C794.017 18.7756 791.529 19.5773 789.301 20.803C787.225 21.9453 784.826 22.7168 782.596 23.5235C779.921 24.4914 776.428 24.041 773.733 23.4189C772.105 23.0431 770.716 22.1188 769.168 21.583C767.245 20.9173 764.989 20.9609 762.986 20.6032C761.896 20.4085 760.071 20.3104 759.03 20.7269C756.075 21.9091 752.687 23.2153 749.368 22.5342C748.116 22.2774 746.836 22.1292 745.592 21.8018C744.586 21.5369 743.366 21.4501 742.33 21.3833C741.867 21.3534 741.138 21.2692 740.675 21.4118C736.672 22.6438 732.39 21.8803 728.426 21.0693C726.449 20.6648 724.391 20.5949 722.387 20.2608C720.673 19.975 718.833 20.004 717.09 20.004C715.064 20.004 712.789 19.3958 710.794 19.9659C709.869 20.2302 708.788 20.0337 707.846 20.2132C706.271 20.5132 704.696 20.6648 703.138 21.0313C702.294 21.2301 701.561 21.6354 700.742 21.8874C700.193 22.0563 699.79 22.6352 699.287 22.9147C698.18 23.5296 697.175 24.516 695.949 24.7887C693.38 25.3597 691.001 26.2728 688.407 26.5199C682.408 27.0914 676.382 27.269 670.357 27.6994C667.747 27.8859 666.536 30.6034 664.109 31.1429C662.831 31.4268 661.787 31.76 660.428 31.609C657.766 31.3132 655.149 31.6258 652.496 31.8087C649.859 31.9906 646.827 32.2065 644.746 33.968C643.962 34.6316 643.505 35.9901 642.625 36.4793C642.254 36.6854 641.804 36.6124 641.389 36.6124H635.778C633.086 36.6124 630.384 35.8619 627.808 35.3757C626.045 35.043 624.311 34.742 622.53 34.4721C621.6 34.3312 620.671 34.4746 619.743 34.3769C616.857 34.0731 613.988 33.7016 611.089 33.7016C609.903 33.7016 608.423 33.4554 607.294 33.1118C606.481 32.8643 605.539 32.4693 604.708 32.3413C604.099 32.2476 603.564 31.8982 602.929 31.8277C601.622 31.6824 600.319 31.4645 599.011 31.3045C596.973 31.0552 594.734 30.7715 592.763 30.1915C590.948 29.6575 588.767 29.1241 586.857 29.0786C584.572 29.0242 582.3 28.7484 580.057 28.4032C578.634 28.1842 577.199 28.2225 575.749 28.2225C572.986 28.2225 570.237 28.1187 567.475 28.0513C567.023 28.955 564.083 29.7309 563.329 30.4103C562.722 30.9562 561.335 31.309 560.542 31.4852C559.99 31.6079 559.661 32.1148 559.173 32.3318C558.001 32.8526 557.026 34.7611 556.186 35.6706C555.763 36.1298 555.402 36.8236 554.807 37.088C553.961 37.4644 552.436 37.126 551.517 37.126C549.522 37.126 547.52 37.1714 545.525 37.126C544.695 37.1071 543.208 37.1743 542.406 36.9453C542.137 36.8683 541.097 36.8921 540.942 36.698C540.831 36.5597 539.897 35.9456 539.743 35.9275C538.999 35.8399 538.396 35.2655 537.594 35.2426C535.289 35.1767 532.976 35.2426 530.67 35.2426C528.383 35.2426 526.266 35.7997 523.909 35.3282C523.119 35.1703 522.285 35.2907 521.522 34.9762C520.925 34.7305 520.402 34.5248 519.734 34.4245C518.99 34.3129 518.208 34.5297 517.451 34.5577C516.975 34.5753 516.596 34.8721 516.12 34.9001C515.375 34.9439 514.574 35.2113 513.78 35.2331C512.572 35.2662 511.4 35.1903 510.224 35.4043C509.804 35.4805 509.469 35.585 509.025 35.585H509.017C506.607 35.585 503.291 35.585 501.303 37.2116C500.719 37.6897 500.267 37.9821 499.515 37.9821C497.438 37.9821 495.28 37.9342 493.229 37.6302C491.724 37.4072 490.177 37.0959 488.664 36.9643C488.344 36.9365 488.178 36.7836 487.874 36.7836C486.746 36.7836 485.325 36.4986 484.28 36.9167C483.222 37.3399 481.574 37.2972 480.428 37.2972C479.582 37.2972 478.564 37.6859 477.699 37.8014C476.497 37.9616 475.101 37.829 474.009 37.2972C473.104 36.8571 472.157 34.8535 471.27 34.5575C470.689 34.3639 470.021 33.954 469.453 33.7014C468.603 33.3236 467.452 33.308 466.553 33.0926C465.404 32.8176 464.198 32.5541 463.072 32.1985C461.939 31.8406 460.589 31.725 459.553 31.1331C459.115 30.883 457.802 29.5253 457.746 29.0785C457.7 28.7076 456.29 28.1719 455.958 28.0511C455.308 27.8148 454.615 27.7751 453.942 27.5755C452.773 27.2292 451.901 28.2688 450.651 28.0416C449.256 27.7878 447.714 27.1904 446.524 26.5101C445.3 25.8106 444.372 25.654 442.939 25.654C442.345 25.654 441.85 25.8039 441.274 25.8253L441.217 25.8273C440.702 25.8457 439.199 25.8995 438.916 26.2533C438.28 27.0487 435.896 26.6814 434.979 26.6814H432.154C431.556 26.6814 431.268 27.3109 430.87 27.7087C429.857 28.7217 428.642 28.2888 427.447 28.2223C426.675 28.1795 426.011 27.9221 425.297 27.7182C424.715 27.5518 424.078 27.6387 423.509 27.4043C423.311 27.3224 422.445 27.8434 422.225 27.9655C421.649 28.2856 420.912 28.3339 420.342 28.6504C418.83 29.4909 417.158 27.505 415.72 27.1855C414.556 26.9267 413.334 25.7715 412.458 25.0548C411.557 24.3171 410.059 23.9418 408.959 23.9418C407.126 23.9418 405.347 24.113 403.481 24.113C402.902 24.113 402.012 24.134 401.512 23.8562C400.973 23.5567 400.129 23.7867 399.544 23.5613C398.498 23.1592 397.463 22.9292 396.538 22.4008C395.907 22.04 395.327 21.8012 394.617 21.5828C393.263 21.166 391.653 21.0311 390.224 21.0311C389.219 21.0311 388.314 20.6886 387.323 20.6886C386.67 20.6886 385.712 20.251 385.078 20.603C384.64 20.8467 383.237 21.5092 382.806 21.1642C382.535 20.9479 381.482 20.8139 381.122 20.8693C379.836 21.0673 378.798 22.046 377.451 21.8776C376.955 21.8156 376.084 21.7471 375.711 21.4115C375.217 20.9671 374.472 20.9379 374.047 20.4413C373.098 19.3337 370.012 20.1395 368.806 20.1749C368.029 20.1978 367.339 20.4103 366.562 20.5174C364.231 20.8391 361.819 20.9984 359.467 21.0311C357.933 21.0524 356.303 21.4293 354.798 21.7159C353.581 21.9478 352.549 21.7159 351.327 21.7159C346.587 21.7159 342.028 20.5732 337.66 23.0001C337 23.3669 336.131 24.0349 335.35 24.113C334.907 24.1573 334.632 24.0319 334.236 23.8507L334.227 23.8467C333.831 23.6653 333.367 23.833 332.953 23.685C330.958 22.9722 328.553 24.2022 326.686 24.6172C325.211 24.9451 322.971 25.3819 321.56 24.9787C320.381 24.6417 319.587 23.5333 318.44 23.1238C317.524 22.7965 316.756 22.0756 315.939 21.5542C314.583 20.6883 313.105 20.0401 311.897 18.9767C311.137 17.8361 309.932 18.2919 308.816 18.2919C306.379 18.2919 303.752 18.5461 301.36 18.1111C300.399 17.9364 299.474 17.3486 298.621 16.9221C297.919 16.5712 297.018 16.3269 296.453 15.7616C295.812 15.1208 294.322 14.2533 294.085 13.4216C293.848 12.5927 292.278 11.9567 291.526 11.9567C290.387 11.9567 289.216 11.6142 288.036 11.6142H285.364C284.486 11.6142 281.911 11.1921 281.122 11.8235C280.016 12.7088 278.989 13.166 277.48 13.3169C275.47 13.5179 273.405 13.2029 271.403 13.1552C270.203 13.1267 269.022 12.8128 267.827 12.8128C264.416 12.8128 261.005 12.4703 257.575 12.4703C254.631 12.4703 251.742 13.1552 248.816 13.1552C247.52 13.1552 246.104 13.3605 244.812 13.5357C243.881 13.662 242.888 13.5378 241.978 13.7545C241.571 13.8514 241.118 13.9947 240.704 14.0113C239.495 14.0597 238.183 14.4479 237.004 14.6962C235.906 14.9275 234.807 15.1585 233.695 15.3811C231.232 15.8737 228.645 15.8948 226.134 15.8948C224.419 15.8948 222.574 15.9629 220.913 15.4572C219.487 15.0232 217.792 14.9856 216.443 14.4299C215.532 14.0546 214.605 14.0113 213.638 14.0113L205.592 14.0113C204.804 14.0113 204.162 13.8843 203.367 13.84C202.764 13.8066 201.056 13.9086 200.59 13.5357C200.213 13.2342 198.65 13.3499 198.155 13.3264C196.253 13.2358 194.407 12.6415 192.496 12.6415C191.766 12.6415 190.827 12.1086 190.1 11.9471C189.308 11.7712 188.538 11.7854 187.703 11.7854C186.001 11.7854 184.275 11.6519 182.615 11.6142C180.222 11.5598 178.002 11.7854 175.635 11.7854H173.067C172.297 11.7854 171.35 11.3115 170.575 11.4525C169.537 11.6413 168.304 11.4249 167.323 11.871C166.561 12.2173 165.894 12.5573 165.174 12.9174C164.068 13.4701 162.978 14.0253 161.854 14.5249C160.879 14.9587 160.406 15.7274 159.296 16.0659C158.02 16.4553 156.241 16.922 154.883 16.922C153.678 16.922 152.511 17.3297 151.289 17.5689C150.802 17.6642 149.937 17.7273 149.529 18.0445C149.164 18.3289 148.816 18.7038 148.417 18.9386C147.74 19.3366 147.153 19.7294 146.362 19.8423C144.808 20.0645 143.396 19.8328 141.826 19.8328C139.54 19.8328 137.237 19.6616 134.979 19.6616C134.117 19.6616 133.243 19.8328 132.42 19.8328C131.772 19.8328 130.737 19.7338 130.233 20.1372C130.1 20.2438 129.821 20.1796 129.653 20.2704C129.278 20.4724 128.937 20.7193 128.569 20.9267C128.271 21.0942 127.675 21.508 127.361 21.545C126.933 21.5953 126.659 22.2363 126.258 22.3821C125.171 22.7773 123.254 22.4026 122.187 22.325C119.288 22.1141 116.348 21.7955 113.581 22.4106C111.665 22.8363 110.523 24.6382 109.253 25.9587C108.674 26.5613 108.274 27.3665 107.332 27.3665C105.692 27.3665 104.143 27.0241 102.501 27.0241L102.402 27.0241C100.735 27.0236 98.4987 27.023 97.1374 28.137C96.5549 28.6137 95.9116 29.2168 95.2544 29.5924C94.377 30.0939 94.17 30.4485 93.048 30.4485H89.1869C86.6795 30.4485 84.2428 30.3879 81.7879 29.8968C80.7225 29.6837 79.767 29.25 78.6686 29.25C76.6215 29.25 74.3122 29.2198 72.3157 29.5829C71.1046 29.8031 69.8051 29.9016 68.6353 30.0966C67.1944 30.3368 65.6632 30.2088 64.232 30.5341C61.5906 31.1346 58.4264 30.4485 55.7489 30.4485C51.9496 30.4485 48.0425 30.3566 45.2877 33.112C44.2001 34.1998 43.2897 35.9745 41.8545 36.6125C39.9213 37.4719 37.9968 37.2278 35.9106 37.2974C34.8553 37.3326 33.9643 37.9823 32.9054 37.9823H29.1393C26.5002 37.9823 23.7782 37.7862 21.1602 37.4781C19.376 37.2682 17.5441 37.2974 15.7394 37.2974C14.133 37.2974 13.0185 38.2361 11.3742 37.8491C10.2971 37.5956 9.2633 37.6294 8.21683 37.1642C7.69782 36.9335 6.83633 36.6125 6.24822 36.6125C5.51746 36.6125 4.29804 36.2644 3.59486 36.0132Z" fill="white"/>
</svg>
