<svg width="161" height="186" viewBox="0 0 161 186" fill="none" xmlns="http://www.w3.org/2000/svg">
<path d="M112.816 178.185C112.833 178.584 112.345 178.904 111.846 178.925L91.3424 179.259C90.8428 179.279 90.431 178.996 90.3148 178.6L86.0386 139.942C86.0102 139.243 86.4894 138.723 87.0889 138.699L114.595 138.279C115.294 138.251 115.818 138.83 115.743 139.434L112.816 178.185Z" fill="#757575"/>
<path d="M115.298 138.351L112.372 177.102C112.388 177.502 111.901 177.822 111.401 177.842L91.7974 178.14C91.2978 178.16 90.8859 177.877 90.8696 177.477L86.7933 138.811C86.2978 138.931 86.0184 139.443 86.0388 139.942L90.3149 178.6C90.3311 179 90.8429 179.28 91.3425 179.259L112.046 178.917C112.545 178.896 113.033 178.576 113.016 178.177L116.142 139.417C116.122 138.918 115.802 138.43 115.298 138.351Z" fill="#515151"/>
<path d="M86.1468 140.138L86.4443 142.528L92.1436 142.396L94.5144 149.005L96.1444 142.333L106.048 142.23L107.816 148.764L110.049 142.168L115.748 142.036L115.955 139.725L86.1468 140.138Z" fill="#515151"/>
<path d="M92.1603 137.892L94.5144 149.005L95.7533 137.645L92.1603 137.892Z" fill="#757575"/>
<path d="M109.866 137.671L107.816 148.764L106.357 137.514L109.866 137.671Z" fill="#757575"/>
<path d="M118.132 139.136C118.153 139.636 117.769 140.052 117.27 140.072L84.8639 140.593C84.3643 140.613 83.9484 140.23 83.9281 139.73L83.9387 137.528C83.9184 137.028 84.3018 136.612 84.8014 136.592L117.207 136.071C117.707 136.051 118.122 136.434 118.143 136.934L118.132 139.136Z" fill="#757575"/>
<path d="M99.2258 159.022L101.19 155.639L100.281 152.974L101.565 155.023L102.429 156.589L100.38 157.874L105.449 159.469L106.337 154.228L104.283 155.413L102.779 152.872L100.281 152.974L97.3866 158.096L99.2258 159.022Z" fill="white"/>
<path d="M104.894 160.592L106.931 163.912L109.661 164.602L107.359 164.595L105.461 164.673L105.359 162.175L101.501 165.735L105.644 169.169L105.546 166.771L108.548 166.749L109.757 164.498L106.752 159.516L104.894 160.592Z" fill="white"/>
<path d="M100.761 164.764L96.8598 164.823L95.0468 166.998L96.1604 164.851L97.0945 163.212L99.2416 164.326L98.0309 159.171L93.0042 161.077L95.1513 162.19L93.7583 164.849L95.0468 166.998L100.846 166.862L100.761 164.764Z" fill="white"/>
<path d="M154.863 178.66C154.878 179.072 154.424 179.306 153.916 179.348L133.436 179.394C132.928 179.436 132.501 179.038 132.419 178.749L128.716 140.072C128.619 139.372 129.182 138.794 129.814 138.821L157.382 138.823C158.11 138.823 158.591 139.413 158.468 140.072L154.863 178.66Z" fill="#3498DB"/>
<path d="M157.89 138.782L154.409 177.438C154.423 177.85 153.97 178.084 153.462 178.126L133.806 178.144C133.297 178.185 132.899 177.884 132.885 177.472L129.278 138.767C128.797 138.904 128.427 139.427 128.565 139.907L132.391 178.653C132.405 179.065 132.9 179.34 133.408 179.298L154.108 179.293C154.617 179.251 155.07 179.017 155.056 178.605L158.661 140.017C158.715 139.482 158.357 138.96 157.89 138.782Z" fill="#1A7299"/>
<path d="M128.771 140.264L128.924 142.613L134.652 142.635L136.966 149.254L138.608 142.646L148.581 142.595L150.262 149.187L152.537 142.605L158.265 142.628L158.427 140.292L128.771 140.264Z" fill="#1A7299"/>
<path d="M134.717 138.144L136.966 149.254L138.274 137.852L134.717 138.144Z" fill="#3498DB"/>
<path d="M152.381 138.072L150.263 149.187L148.879 137.828L152.381 138.072Z" fill="#3498DB"/>
<path d="M160.734 139.631C160.776 140.139 160.378 140.565 159.842 140.511L127.494 140.526C126.986 140.568 126.56 140.17 126.614 139.634L126.612 137.45C126.57 136.942 126.968 136.516 127.504 136.57L159.852 136.555C160.361 136.513 160.787 136.911 160.732 137.447L160.734 139.631Z" fill="#3498DB"/>
<path d="M141.536 159.387L143.552 155.896L142.588 153.26L143.895 155.278L144.775 156.898L142.661 158.232L147.69 159.807L148.674 154.532L146.656 155.839L145.088 153.271L142.588 153.26L139.68 158.359L141.536 159.387Z" fill="white"/>
<path d="M147.196 160.989L149.081 164.298L151.87 164.955L149.494 165.012L147.722 165L147.637 162.527L143.657 166.061L147.781 169.56L147.724 167.184L150.732 167.153L151.966 164.927L149.05 159.834L147.196 160.989Z" fill="white"/>
<path d="M142.942 165.018L139.109 165.076L137.216 167.179L138.381 165.077L139.273 163.469L141.375 164.634L140.299 159.429L135.315 161.275L137.418 162.44L135.881 165.065L137.216 167.179L143.04 167.174L142.942 165.018Z" fill="white"/>
<path d="M70.5825 96.2472C70.5825 96.2472 67.5622 101.28 66.0212 105.116C64.3992 109.011 61.7201 111.448 61.7201 111.448C61.7201 111.448 47.8028 142.672 46.3602 144.089C45.0571 145.528 42.2384 147.944 41.0894 143.465C39.9403 138.986 48.4202 111.337 48.3774 110.257C48.3345 109.176 48.0647 107.271 44.3366 107.752C40.6085 108.233 39.8816 113.702 40.1276 117.106C40.4149 122.952 40.3419 122.511 39.3356 127.935C38.6548 131.765 40.372 134.473 39.5182 141.64C38.3977 150.483 39.2134 150.756 31.6525 153.277C29.8432 153.848 24.8819 127.426 24.7184 122.603C24.555 117.779 28.0434 95.852 31.0668 94.3998C34.0903 92.9476 50.9024 75.9323 52.0753 72.6105C56.1478 60.5136 59.6871 7.66314 59.6871 7.66314L88.0152 7.3727C88.0152 7.3727 78.5831 57.2093 73.871 75.5768C71.9061 89.7274 70.5825 96.2472 70.5825 96.2472Z" fill="#F9B4A6"/>
<path d="M42.7638 107.287C40.5863 108.373 38.996 110.268 37.8025 112.369C36.2408 114.985 35.2743 117.91 34.4474 120.857C32.7047 127.31 32.0572 134.081 32.3508 140.786C32.4651 143.668 32.8587 146.595 33.8554 149.331C34.0458 149.934 35.0314 149.59 34.841 148.987C33.976 146.773 33.6554 144.287 33.5332 141.905C33.2428 138.78 33.3126 135.641 33.5808 132.605C34.1395 126.393 35.2425 119.909 38.0723 114.274C39.2293 111.952 40.8862 109.638 43.1447 108.493C43.7335 107.943 43.3082 107.016 42.7638 107.287Z" fill="#F3A08E"/>
<path d="M51.6705 60.3026C51.6705 60.3026 59.0331 57.6791 64.0801 61.0596C69.127 64.4402 73.5201 73.731 73.5201 73.731C73.5201 73.731 83.4205 63.7069 85.9821 61.1072C88.5437 58.5076 101.701 42.4144 108.913 24.0865C115.143 8.32342 126.029 -20.9475 126.029 -20.9475L80.3399 -37.0947C80.3399 -37.0947 63.4024 -7.13972 59.687 7.66318C55.9716 22.4661 51.0928 38.7307 51.2753 46.1345C51.5166 53.6193 51.6705 60.3026 51.6705 60.3026Z" fill="#E4002B"/>
<path d="M47.4902 177.491C47.5854 177.792 48.1218 178.021 48.5043 177.867L67.3242 172.985C67.7654 172.912 68.1114 172.537 68.0384 172.096L62.0963 135.637C61.9868 134.975 61.3916 134.666 60.7298 134.775L35.4012 141.414C34.7981 141.605 34.4886 142.2 34.6791 142.803L47.4902 177.491Z" fill="#E4002B"/>
<path d="M35.0187 141.568L47.5504 176.212C47.6457 176.513 48.1821 176.742 48.5646 176.588L66.6417 171.874C67.0829 171.801 67.3702 171.345 67.3559 170.985L61.3328 134.585C61.8328 134.593 62.2073 134.939 62.3391 135.461L68.2002 171.979C68.2145 172.339 67.8685 172.714 67.486 172.867L48.4456 177.786C47.9234 177.918 47.5266 177.711 47.4314 177.41L34.76 142.744C34.4664 142.34 34.614 141.862 35.0187 141.568Z" fill="#BE1E2D"/>
<path d="M62.1914 135.939L62.5564 138.145L57.3349 139.462L56.8492 146.116L53.6798 140.385L44.5603 142.8L44.5968 149.322L40.9052 143.722L35.6027 145.098L34.8552 143.046L62.1914 135.939Z" fill="#BE1E2D"/>
<path d="M56.2002 135.344L56.8493 146.116L52.8689 136.031L56.2002 135.344Z" fill="#E4002B"/>
<path d="M39.9101 139.626L44.5968 149.322L43.0875 138.556L39.9101 139.626Z" fill="#E4002B"/>
<path d="M32.7158 142.992C32.7888 143.433 33.303 143.801 33.7664 143.589L63.5738 135.801C64.015 135.728 64.3832 135.214 64.1706 134.75L63.7024 132.742C63.6294 132.301 63.1151 131.933 62.6517 132.146L32.8443 139.934C32.4031 140.007 32.0349 140.521 32.2476 140.984L32.7158 142.992Z" fill="#E4002B"/>
<path d="M54.9844 156.487L52.407 153.786L52.6085 151.169L51.9737 153.359L51.4865 155.072L53.6766 155.706L49.4534 158.4L47.3854 153.846L49.5756 154.481L50.2993 151.732L52.6085 151.169L56.4858 155.151L54.9844 156.487Z" fill="white"/>
<path d="M50.239 159.312L49.2423 162.877L46.8807 164.22L49.0502 163.634L50.6976 163.18L50.193 160.952L54.6972 163.244L51.7515 167.357L51.2468 165.129L48.4741 165.905L46.8219 164.139L48.2472 158.781L50.239 159.312Z" fill="white"/>
<path d="M55.0955 162.09L58.6109 161.145L60.9472 162.663L59.3537 160.977L58.1126 159.777L56.4271 161.371L56.2271 156.327L61.2408 156.767L59.5553 158.36L61.5233 160.392L60.9472 162.663L55.505 164.017L55.0955 162.09Z" fill="white"/>
<path d="M50.866 119.817C56.8255 122.412 53.3847 128.738 51.0025 135.161C48.5393 141.643 44.2319 147.115 42.2559 145.584C39.788 143.544 41.2577 137.907 43.2653 131.138C45.1699 124.567 45.4428 117.451 50.866 119.817Z" fill="#F9B4A6"/>
</svg>
