<svg width="196" height="197" viewBox="0 0 196 197" fill="none" xmlns="http://www.w3.org/2000/svg">
<g clip-path="url(#clip0_621_3773)">
<path d="M94.2603 176.813C94.2766 177.213 93.7892 177.533 93.2896 177.553L72.7863 177.888C72.2867 177.908 71.8748 177.624 71.7586 177.229L67.4825 138.571C67.454 137.871 67.9333 137.351 68.5328 137.327L96.0385 136.908C96.7379 136.879 97.2619 137.458 97.1864 138.062L94.2603 176.813Z" fill="#757575"/>
<path d="M96.7421 136.979L93.816 175.73C93.8323 176.13 93.3449 176.45 92.8453 176.47L73.2412 176.768C72.7416 176.788 72.3298 176.505 72.3135 176.105L68.2372 137.439C67.7417 137.559 67.4623 138.071 67.4826 138.571L71.7587 177.229C71.775 177.628 72.2868 177.908 72.7864 177.887L93.4896 177.545C93.9892 177.525 94.4765 177.204 94.4603 176.805L97.5862 138.046C97.5658 137.546 97.2457 137.059 96.7421 136.979Z" fill="#515151"/>
<path d="M67.5906 138.766L67.8881 141.156L73.5874 141.024L75.9583 147.633L77.5882 140.962L87.4922 140.859L89.2595 147.392L91.493 140.796L97.1923 140.664L97.3985 138.354L67.5906 138.766Z" fill="#515151"/>
<path d="M73.6041 136.52L75.9581 147.634L77.197 136.274L73.6041 136.52Z" fill="#757575"/>
<path d="M91.3098 136.3L89.2594 147.392L87.8005 136.142L91.3098 136.3Z" fill="#757575"/>
<path d="M99.5763 137.765C99.5967 138.264 99.2133 138.68 98.7137 138.7L66.3079 139.219C65.8084 139.239 65.3924 138.856 65.3721 138.357L65.3825 136.154C65.3622 135.655 65.7456 135.239 66.2451 135.218L98.6509 134.7C99.1505 134.679 99.5664 135.063 99.5867 135.562L99.5763 137.765Z" fill="#757575"/>
<path d="M80.6696 157.65L82.6336 154.268L81.7245 151.602L83.0089 153.652L83.8733 155.218L81.8239 156.502L86.8929 158.098L87.7805 152.857L85.727 154.042L84.2224 151.501L81.7245 151.602L78.8304 156.724L80.6696 157.65Z" fill="white"/>
<path d="M86.3382 159.221L88.375 162.541L91.1053 163.231L88.8031 163.224L86.9047 163.301L86.803 160.804L82.9446 164.363L87.0877 167.798L86.9901 165.4L89.9917 165.378L91.2011 163.127L88.196 158.145L86.3382 159.221Z" fill="white"/>
<path d="M82.2045 163.393L78.3037 163.451L76.4907 165.627L77.6043 163.48L78.5383 161.84L80.6854 162.954L79.4747 157.799L74.4481 159.705L76.5952 160.819L75.2022 163.477L76.4907 165.627L82.29 165.491L82.2045 163.393Z" fill="white"/>
<path d="M136.307 177.289C136.321 177.701 135.868 177.935 135.36 177.977L114.879 178.023C114.371 178.064 113.945 177.666 113.862 177.378L110.16 138.701C110.063 138 110.626 137.423 111.257 137.45L138.826 137.452C139.554 137.451 140.035 138.042 139.912 138.701L136.307 177.289Z" fill="#3498DB"/>
<path d="M139.334 137.41L135.853 176.067C135.867 176.479 135.414 176.713 134.906 176.755L115.249 176.772C114.741 176.814 114.342 176.512 114.328 176.1L110.722 137.395C110.241 137.533 109.871 138.055 110.008 138.536L113.835 177.282C113.849 177.694 114.344 177.968 114.852 177.927L135.552 177.922C136.06 177.88 136.513 177.646 136.499 177.234L140.104 138.646C140.159 138.11 139.801 137.589 139.334 137.41Z" fill="#1A7299"/>
<path d="M110.215 138.893L110.368 141.242L116.096 141.264L118.41 147.883L120.052 141.274L130.024 141.224L131.706 147.816L133.98 141.234L139.708 141.256L139.871 138.921L110.215 138.893Z" fill="#1A7299"/>
<path d="M116.161 136.772L118.41 147.883L119.718 136.481L116.161 136.772Z" fill="#3498DB"/>
<path d="M133.825 136.701L131.706 147.816L130.322 136.457L133.825 136.701Z" fill="#3498DB"/>
<path d="M142.178 138.26C142.22 138.768 141.822 139.194 141.286 139.139L108.938 139.155C108.429 139.197 108.003 138.799 108.058 138.263L108.056 136.079C108.014 135.571 108.412 135.145 108.948 135.199L141.296 135.183C141.804 135.142 142.231 135.54 142.176 136.075L142.178 138.26Z" fill="#3498DB"/>
<path d="M122.979 158.016L124.996 154.525L124.032 151.888L125.338 153.906L126.219 155.526L124.105 156.861L129.134 158.436L130.118 153.16L128.1 154.467L126.532 151.9L124.032 151.888L121.124 156.987L122.979 158.016Z" fill="white"/>
<path d="M128.64 159.618L130.525 162.926L133.314 163.583L130.938 163.64L129.166 163.628L129.081 161.156L125.101 164.689L129.225 168.188L129.168 165.812L132.176 165.782L133.41 163.555L130.494 158.462L128.64 159.618Z" fill="white"/>
<path d="M124.386 163.646L120.553 163.705L118.66 165.808L119.825 163.706L120.717 162.098L122.819 163.263L121.743 158.058L116.759 159.903L118.861 161.069L117.325 163.694L118.66 165.808L124.484 165.803L124.386 163.646Z" fill="white"/>
<path d="M83.2336 114.106C83.2336 114.106 77.997 116.757 74.6498 119.183C71.2027 121.616 67.6369 122.252 67.6369 122.252C67.6369 122.252 39.2293 141.267 37.2534 141.699C35.384 142.223 31.7118 142.766 33.1245 138.364C34.5372 133.961 56.4392 115.075 56.9785 114.138C57.5178 113.2 58.3037 111.444 54.8922 109.866C51.4807 108.287 47.9528 112.529 46.348 115.542C43.4781 120.642 43.6513 120.23 39.9107 124.285C37.2949 127.164 37.3064 130.37 32.7666 135.982C27.1086 142.87 27.6537 143.536 19.912 141.642C18.0763 141.162 27.9485 116.157 30.3787 111.987C32.809 107.818 47.4393 91.1166 50.7717 91.4976C54.1041 91.8787 77.3954 86.4305 80.1572 84.2436C90.0465 76.1737 121.188 33.3264 121.188 33.3264L145.32 48.167C145.32 48.167 110.795 85.3251 97.0252 98.3618C87.8261 109.292 83.2336 114.106 83.2336 114.106Z" fill="#F9B4A6"/>
<path d="M53.8086 108.635C51.3874 108.394 49.0322 109.151 46.903 110.294C44.1882 111.676 41.8124 113.637 39.5429 115.691C34.6313 120.225 30.4775 125.611 27.1549 131.442C25.7167 133.943 24.4912 136.629 23.8777 139.476C23.7177 140.088 24.7353 140.321 24.8953 139.709C25.3422 137.375 26.3945 135.1 27.5598 133.019C28.9782 130.219 30.7092 127.6 32.5531 125.173C36.3342 120.212 40.7205 115.312 46.1171 112.049C48.3329 110.7 50.9677 109.624 53.4886 109.858C54.2803 109.706 54.4139 108.695 53.8086 108.635Z" fill="#F3A08E"/>
<path d="M86.3694 73.6106C86.3694 73.6106 93.9982 75.3112 96.4696 80.8602C98.941 86.4093 97.7113 96.6126 97.7113 96.6126C97.7113 96.6126 111.429 93.4008 114.982 92.5647C118.534 91.7285 138.241 85.1143 154.106 73.4425C167.774 63.4191 192.577 44.4418 192.577 44.4418L162.505 6.44258C162.505 6.44258 132.216 22.776 121.188 33.3263C110.16 43.8767 97.3688 55.0447 93.5803 61.4085C89.7983 67.872 86.3694 73.6106 86.3694 73.6106Z" fill="#E4002B"/>
<path d="M28.9338 176.12C29.029 176.421 29.5654 176.65 29.9479 176.496L48.7678 171.614C49.209 171.541 49.555 171.166 49.482 170.725L43.5399 134.266C43.4304 133.605 42.8352 133.295 42.1734 133.405L16.8448 140.043C16.2417 140.234 15.9322 140.829 16.1227 141.432L28.9338 176.12Z" fill="#E4002B"/>
<path d="M16.4624 140.197L28.9942 174.84C29.0894 175.142 29.6258 175.37 30.0083 175.216L48.0854 170.503C48.5266 170.43 48.8139 169.974 48.7996 169.614L42.7766 133.214C43.2765 133.222 43.6511 133.568 43.7828 134.09L49.6439 170.607C49.6582 170.968 49.3122 171.342 48.9298 171.496L29.8893 176.415C29.3671 176.546 28.9704 176.34 28.8751 176.038L16.2037 141.373C15.9101 140.968 16.0577 140.491 16.4624 140.197Z" fill="#BE1E2D"/>
<path d="M43.635 134.568L44.0001 136.774L38.7785 138.091L38.2928 144.744L35.1234 139.013L26.0039 141.429L26.0404 147.95L22.3488 142.351L17.0463 143.727L16.2988 141.675L43.635 134.568Z" fill="#BE1E2D"/>
<path d="M37.6438 133.973L38.2929 144.744L34.3125 134.66L37.6438 133.973Z" fill="#E4002B"/>
<path d="M21.3537 138.255L26.0404 147.95L24.5311 137.185L21.3537 138.255Z" fill="#E4002B"/>
<path d="M14.1594 141.621C14.2324 142.062 14.7466 142.43 15.21 142.218L45.0174 134.43C45.4586 134.357 45.8268 133.843 45.6142 133.379L45.146 131.371C45.073 130.93 44.5587 130.562 44.0953 130.775L14.2879 138.563C13.8467 138.636 13.4785 139.15 13.6912 139.613L14.1594 141.621Z" fill="#E4002B"/>
<path d="M36.428 155.116L33.8506 152.415L34.0521 149.797L33.4173 151.988L32.9301 153.7L35.1202 154.335L30.897 157.028L28.829 152.475L31.0192 153.11L31.7429 150.361L34.0521 149.797L37.9294 153.78L36.428 155.116Z" fill="white"/>
<path d="M31.6826 157.941L30.6859 161.506L28.3243 162.848L30.4938 162.263L32.1413 161.809L31.6366 159.581L36.1408 161.872L33.1951 165.986L32.6904 163.758L29.9177 164.534L28.2656 162.768L29.6908 157.409L31.6826 157.941Z" fill="white"/>
<path d="M36.5392 160.718L40.0547 159.774L42.3909 161.291L40.7974 159.606L39.5563 158.406L37.8708 159.999L37.6708 154.956L42.6845 155.395L40.999 156.989L42.967 159.02L42.3909 161.291L36.9487 162.645L36.5392 160.718Z" fill="white"/>
<path d="M53.9932 123.555C57.6554 128.925 51.374 132.447 45.937 136.615C40.4003 140.789 33.8402 143.127 32.9834 140.778C31.9807 137.738 36.2269 133.749 41.5311 129.089C46.6423 124.542 50.6633 118.664 53.9932 123.555Z" fill="#F9B4A6"/>
</g>
<defs>
<clipPath id="clip0_621_3773">
<rect width="196" height="197" fill="white"/>
</clipPath>
</defs>
</svg>
